<?xml version="1.0" encoding="UTF-8"?>
<svg width="313px" height="57px" viewBox="0 0 313 57" version="1.1" xmlns="http://www.w3.org/2000/svg" xmlns:xlink="http://www.w3.org/1999/xlink">
    <!-- Generator: Sketch 54.1 (76490) - https://sketchapp.com -->
    <title>应用开发平台</title>
    <desc>Created with Sketch.</desc>
    <defs>
        <polygon id="path-1" points="0.0003 0.0001 195.0383 0.0001 195.0383 31.8719 0.0003 31.8719"></polygon>
    </defs>
    <g id="Page-1" stroke="none" stroke-width="1" fill="none" fill-rule="evenodd">
        <g id="logo简体复制" transform="translate(-31.000000, -19.000000)">
            <g id="应用开发平台" transform="translate(31.000000, 19.000000)">
                <g id="编组-2" fill-rule="nonzero">
                    <g id="iuap应用平台logo复制">
                        <g id="XMLID_599_">
                            <g id="XMLID_600_">
                                <g id="XMLID_644_" transform="translate(66.000000, 0.000000)" fill="#717071">
                                    <path d="M3.1,5.3 C3.1,5.3 2,7.4 2,7.5 C1.9,7.7 2,7.9 2.2,7.9 L3.8,7.9 C3.8,7.9 7.5,0.6 7.6,0.5 C7.6,0.4 7.6,0.3 7.5,0.3 L6,0.3 C5.7,0.3 5.6,0.4 5.5,0.6 C5.5,0.7 4.3,2.9 4.3,2.9 C4.2,3.1 4,3.1 4,2.9 C4,2.9 3,0.8 3,0.7 C2.9,0.5 2.7,0.4 2.4,0.4 L1,0.4 C0.9,0.4 0.9,0.5 0.9,0.5 C0.9,0.5 3.1,5.3 3.1,5.3" id="XMLID_654_"></path>
                                    <path d="M8.1,4.6 C8.7,5.1 9.5,5.3 10.4,5.3 C11.4,5.3 12.2,5 12.7,4.5 C13.2,4 13.5,3.3 13.5,2.7 C13.5,1.9 13.2,1.3 12.7,0.9 C12.1,0.4 11.3,0.2 10.3,0.2 C9.3,0.2 8.5,0.5 8,1 C7.5,1.5 7.2,2.2 7.2,2.8 C7.3,3.5 7.6,4.2 8.1,4.6 M9.4,2.3 C9.9,1.4 10.5,1 11.2,1.3 C11.9,1.6 12,2.3 11.4,3.3 C10.9,4.2 10.3,4.6 9.6,4.3 C9,3.9 8.9,3.2 9.4,2.3" id="XMLID_651_"></path>
                                    <path d="M22.3,5.3 C22.3,5.3 21.2,7.4 21.2,7.5 C21.1,7.7 21.2,7.9 21.4,7.9 L23,7.9 C23,7.9 26.7,0.6 26.8,0.5 C26.8,0.4 26.8,0.3 26.7,0.3 L25.2,0.3 C24.9,0.3 24.8,0.4 24.7,0.6 C24.7,0.7 23.5,2.9 23.5,2.9 C23.4,3.1 23.2,3.1 23.2,2.9 C23.2,2.9 22.2,0.8 22.2,0.7 C22.1,0.5 21.9,0.4 21.6,0.4 L20.2,0.4 C20.1,0.4 20.1,0.5 20.1,0.5 C20.1,0.5 22.3,5.3 22.3,5.3" id="XMLID_650_"></path>
                                    <path d="M27.3,4.6 C27.9,5.1 28.7,5.3 29.7,5.3 C30.7,5.3 31.5,5 32,4.5 C32.5,4 32.8,3.3 32.8,2.7 C32.8,1.9 32.5,1.3 32,0.9 C31.4,0.4 30.6,0.2 29.6,0.2 C28.6,0.2 27.8,0.5 27.3,1 C26.8,1.5 26.5,2.2 26.5,2.8 C26.5,3.5 26.8,4.2 27.3,4.6 M28.6,2.3 C29.1,1.4 29.7,1 30.4,1.3 C31.1,1.6 31.2,2.3 30.6,3.3 C30.1,4.2 29.5,4.6 28.8,4.3 C28.2,3.9 28.1,3.2 28.6,2.3" id="XMLID_647_"></path>
                                    <path d="M14.1,5.2 L15.8,5.2 C16,5.2 16.1,5.1 16.1,4.9 L16.1,1.4 C17.3,1.1 18,1.4 18,1.9 L18,4.9 C18,5.1 18.1,5.2 18.3,5.2 L20,5.2 L20,2 C20,0.4 17.9,-0.4 14.4,0.6 C14.2,0.7 14.1,0.8 14.1,1.1 L14.1,5.2 L14.1,5.2 L14.1,5.2 Z" id="XMLID_646_"></path>
                                    <path d="M38.9,5 C39.1,4.9 39.2,4.8 39.2,4.5 L39.2,0.4 L39.2,0.4 L37.5,0.4 C37.3,0.4 37.2,0.5 37.2,0.7 L37.2,4.2 C36,4.5 35.3,4.2 35.3,3.7 L35.3,0.7 C35.3,0.5 35.2,0.4 35,0.4 L33.3,0.4 L33.3,3.6 C33.3,5.2 35.3,6 38.9,5" id="XMLID_645_"></path>
                                </g>
                                <g id="XMLID_601_" transform="translate(0.000000, 7.000000)">
                                    <g id="XMLID_634_" transform="translate(79.000000, 6.000000)">
                                        <g id="XMLID_640_" transform="translate(0.000000, 17.000000)">
                                            <path d="M26.2,0.7 L19.1,0.7 L19.1,1.5 C19.1,7.7 17,10.7 12.7,10.6 C11.4,10.6 9.6,10.2 7.4,9.5 L7.4,0.7 L0.1,0.7 L0.1,27 L1.1,27 L1.1,27 C1.2,27 1.3,27 1.4,27 L1.5,27 C2.4,27 3.8,26.9 4.8,26.4 C7,25.3 7.5,24.2 7.5,19.7 L7.5,15.6 C9.6,16.2 11.3,16.5 12.8,16.5 C22,16.6 26.5,11.6 26.3,1.4 L26.3,0.7 L26.2,0.7 L26.2,0.7 Z" id="XMLID_643_" fill="#D61519"></path>
                                            <path d="M12.7,10.6 C11.4,10.6 9.6,10.2 7.4,9.5 L7.4,4 C5.1,5.3 2.6,5.9 0.1,6.5 L0.1,15.6 C2.6,17.4 5.1,19.2 7.4,21.2 L7.4,15.7 C9.5,16.3 11.2,16.6 12.7,16.6 C16.5,16.7 19.5,15.8 21.7,14.1 C20.1,12.5 18.6,10.8 17,9.1 C15.9,10.2 14.5,10.7 12.7,10.6 Z" id="XMLID_642_" fill="#E60014"></path>
                                            <path d="M26.2,0.7 L19.1,0.7 L19.1,1.5 C19.1,2.6 19,3.7 18.9,4.6 C21.3,4.5 23.7,4.5 26.1,4.5 C26.2,3.6 26.2,2.6 26.2,1.5 L26.2,0.7 Z" id="XMLID_641_" fill="#E60014"></path>
                                        </g>
                                        <g id="XMLID_638_" fill="#0096FF">
                                            <path d="M14.5,0.8 C11.8,0.8 9.4,1.5 7.2,2.8 L7.2,2.6 L7.2,0.9 L5.7,0.9 C4.8,0.9 3.7,1.1 2.8,1.5 C0.7,2.6 0.2,3.6 0.1,7.8 L0.1,9.6 L0.1,10.6 L0.1,17 L7.4,17 L7.4,9.4 C9.6,8.1 11.8,7.4 13.8,7.4 C16.6,7.3 18.3,8.9 18.9,12.4 L24.4,6.2 C22.5,2.7 19.2,0.9 14.5,0.8 Z" id="XMLID_639_"></path>
                                        </g>
                                        <g id="XMLID_636_" transform="translate(18.000000, 6.000000)" fill="#69CD00">
                                            <path d="M6.3,0.2 L0.8,6.4 C1,7.3 1,8.4 1,9.6 L1,11 L8.1,11 L8.1,9.6 C8.2,5.7 7.6,2.6 6.3,0.2 Z" id="XMLID_637_"></path>
                                        </g>
                                        <path d="M5.6,0.9 C4.7,0.9 3.6,1.1 2.7,1.5 C0.6,2.6 0.1,3.6 0,7.8 L0,10.6 L7.1,2.6 L7.1,0.9 L5.6,0.9 L5.6,0.9 Z" id="XMLID_635_" fill="#FFB400"></path>
                                    </g>
                                    <path d="M64.9,7.3 L64.9,7.3 C64.6,7.2 64.4,7.2 64.1,7.1 L63.2,6.9 C62.9,6.9 61.3,6.7 61.2,6.7 C61,6.7 59.6,6.7 59.3,6.7 L59.3,6.7 C57.5,6.7 55.8,6.8 54.3,6.9 C53.3,7.1 52,7.3 51.2,7.6 C49.7,8.3 48.7,9.5 48.6,14 L48.6,14 C49,13.9 49.9,13.8 50,13.8 C50.7,13.7 51.4,13.6 52,13.5 C52.6,13.4 53.3,13.4 53.9,13.3 C55.6,13.2 57.2,13.1 58.8,13.1 C59.1,13.1 60.2,13.1 60.2,13.1 C60.6,13.1 61,13.2 61.4,13.3 L61.4,13.3 C63.7,13.8 64.8,15.5 64.6,18.3 L64.6,19.2 L61.5,19.2 C55.1,18.9 50.8,20.2 48.6,23 L72,23 L72,18.3 C72.3,12.3 70,8.6 64.9,7.3 Z" id="XMLID_633_" fill="#FFB400"></path>
                                    <g id="XMLID_631_" transform="translate(0.000000, 23.000000)" fill="#D61519">
                                        <path d="M0.5,0.7 L0.5,16.7 C0.5,16.7 3.2,17 4.9,16.1 C7.2,15 7.6,13.8 7.6,9 L7.6,0.7 L0.5,0.7 L0.5,0.7 Z" id="XMLID_632_"></path>
                                    </g>
                                    <path d="M3.4,1.5 C1.4,2.5 0.6,4.3 0.6,9.3 C0.6,9.3 1.6,8.3 3.2,7.7 C4.3,7.3 5.2,6.7 5.8,6.3 C7.5,5 7.8,3.5 7.8,0.8 C7.6,0.8 4.9,0.6 3.4,1.5 Z" id="XMLID_630_" fill="#69CD00"></path>
                                    <path d="M59.3,6.8 C57.5,6.8 55.8,6.9 54.3,7 C53.3,7.2 52,7.4 51.2,7.7 C49.7,8.4 48.7,9.6 48.6,14.1 C52.3,13.5 55.7,13.2 58.8,13.2 C59.8,13.1 60.7,13.2 61.4,13.3 L66.3,7.7 C64.6,7 62.2,6.7 59.3,6.8 Z" id="XMLID_629_" fill="#69CD00"></path>
                                    <path d="M20.9,6.8 L20.9,6.8 C20.8,6.8 20.7,6.8 20.6,6.8 L20.5,6.8 C19.6,6.8 18.2,6.9 17.3,7.4 C15,8.5 14.6,9.7 14.6,14.5 L14.6,15.2 L14.6,15.2 L14.6,20.3 L21.7,12.3 L21.7,6.8 L20.9,6.8 L20.9,6.8 Z" id="XMLID_628_" fill="#FFB400"></path>
                                    <polygon id="XMLID_627_" fill="#FFFFFF" points="98.2 23 105.3 23 105.3 23.7 98.2 23.7"></polygon>
                                    <polygon id="XMLID_626_" fill="#FFFFFF" points="79.1 23 86.4 23 86.4 23.7 79.1 23.7"></polygon>
                                    <g id="XMLID_624_" transform="translate(48.000000, 19.000000)" fill="#69CD00">
                                        <path d="M4.9,4 L8.1,0.4 C4.6,0.9 2.1,2.1 0.6,4 L4.9,4 Z" id="XMLID_625_"></path>
                                    </g>
                                    <polygon id="XMLID_623_" fill="#FFFFFF" points="33.4 23 40.7 23 40.7 23.7 33.4 23.7"></polygon>
                                    <g id="XMLID_621_" transform="translate(33.000000, 11.000000)" fill="#69CD00">
                                        <polygon id="XMLID_622_" points="7.7 12 7.7 0.5 0.4 5.6 0.4 12"></polygon>
                                    </g>
                                    <polygon id="XMLID_620_" fill="#FFFFFF" points="14.5 23 21.6 23 21.6 23.7 14.5 23.7"></polygon>
                                    <path d="M0.5,23.7 L0.5,29.4 C2.9,29.6 5.2,29.7 7.6,29.6 L7.6,23.7 L0.5,23.7 L0.5,23.7 Z" id="XMLID_619_" fill="#E60014"></path>
                                    <polygon id="XMLID_618_" fill="#FFFFFF" points="0.5 23 7.6 23 7.6 23.7 0.5 23.7"></polygon>
                                    <g id="XMLID_612_" transform="translate(46.000000, 23.000000)">
                                        <path d="M0.7,6.4 L0.7,7.5 C0.9,13.6 4.1,16.6 10.9,16.6 C13.6,16.6 16.2,16 18.9,14.8 L18.9,16.6 L26,16.6 L26,0.6 L2.2,0.6 C1.2,2.2 0.7,4.1 0.7,6.4 Z M15.5,2.2 L18.6,2.2 L18.6,9.1 C16.8,10.3 14.5,10.9 11.7,10.9 C9.2,10.9 8,9.9 7.8,8 L7.8,6.5 C7.8,3.4 10.2,2.1 15.5,2.2 Z" id="XMLID_615_" fill="#D61519"></path>
                                        <path d="M8.1,9 C5.9,6.7 3.5,4.7 1.2,2.8 C0.9,3.9 0.7,5.1 0.7,6.4 L0.7,7.5 C0.9,13.6 4.1,16.6 10.9,16.6 C11.9,16.6 13,16.5 14,16.3 C12.6,14.2 11.1,12.2 9.4,10.4 C8.8,10.1 8.4,9.7 8.1,9 Z" id="XMLID_614_" fill="#E60014"></path>
                                        <path d="M23.8,0.7 C22.1,5.5 20.3,10.4 18.3,15.1 C18.5,15 18.7,14.9 18.9,14.8 L18.9,16.6 L20.4,16.6 C21.3,16.6 22.4,16.4 23.3,16 C25.4,15 25.9,13.9 26,10.1 L26,0.6 L23.8,0.6 L23.8,0.7 Z" id="XMLID_613_" fill="#E60014"></path>
                                    </g>
                                    <path d="M7.6,23 L7.6,8.2 L7.6,6.6 C7.6,6.6 6.9,7.6 5.5,8.4 C4.5,9 3.7,9.3 2.7,9.8 C1,10.7 0.6,11.5 0.6,12.8 L0.6,13.2 L0.6,15.3 L0.6,15.7 L0.6,22.9 L7.6,22.9 L7.6,23 L7.6,23 Z" id="XMLID_611_" fill="#FFB400"></path>
                                    <g id="XMLID_609_" transform="translate(14.000000, 10.000000)" fill="#69CD00">
                                        <polygon id="XMLID_610_" points="7.6 13 7.6 0.7 0.5 6.8 0.5 13"></polygon>
                                    </g>
                                    <path d="M38.9,6.8 C38,6.8 36.9,7 36.1,7.4 C33.8,8.5 33.4,9.7 33.4,14.5 L33.4,15.2 L33.4,15.2 L33.4,22.1 L40.7,13.8 L40.7,6.8 L38.9,6.8 L38.9,6.8 Z" id="XMLID_608_" fill="#0096FF"></path>
                                    <path d="M20.9,6.8 L20.9,6.8 C20.8,6.8 20.7,6.8 20.6,6.8 L20.5,6.8 C19.6,6.8 18.2,6.9 17.3,7.4 C15,8.5 14.6,9.7 14.6,14.5 L14.6,15.2 L14.6,15.2 L14.6,20.3 L21.7,12.3 L21.7,6.8 L20.9,6.8 L20.9,6.8 Z" id="XMLID_607_" fill="#FFB400"></path>
                                    <g id="XMLID_603_" transform="translate(14.000000, 23.000000)">
                                        <path d="M19.4,0.7 L19.4,8 C16.7,9.6 14.2,10.4 11.9,10.4 C9.1,10.4 7.7,8.4 7.7,4.4 L7.7,0.7 L0.6,0.7 L0.6,4.4 C0.5,12.7 3.9,16.7 10.8,16.6 C13.9,16.6 16.8,15.9 19.5,14.6 L19.5,16.6 L20.5,16.6 L20.5,16.6 C21.4,16.6 23,16.6 24.2,16 C26.5,14.9 26.9,13.7 26.9,8.9 L26.9,8.2 L26.9,8.2 L26.9,0.6 L19.4,0.6 L19.4,0.7 L19.4,0.7 Z" id="XMLID_606_" fill="#D61519"></path>
                                        <path d="M0.5,0.7 L0.5,4.4 C0.5,4.9 0.5,5.4 0.5,5.9 C2.9,5.5 5.3,4.9 7.6,4.2 L7.6,0.7 L0.5,0.7 Z" id="XMLID_605_" fill="#E60014"></path>
                                        <path d="M19.4,0.7 L19.4,8 C16.7,9.6 14.2,10.4 11.9,10.4 C10.6,10.4 9.7,10 9,9.2 C7.6,11.2 6,13.1 4.5,15 C6.1,16.2 8.2,16.7 10.9,16.6 C12.6,16.6 14.2,16.4 15.8,16 C18.7,12 22.4,8.4 26.2,5.4 C26.4,5.3 26.6,5.2 26.9,5.1 L26.9,0.6 L19.4,0.6 L19.4,0.7 L19.4,0.7 Z" id="XMLID_604_" fill="#E60014"></path>
                                    </g>
                                    <path d="M72,23 L48.7,23 C48.5,23.2 48.4,23.5 48.2,23.7 L72,23.7 L72,23 Z" id="XMLID_602_" fill="#FFFFFF"></path>
                                </g>
                            </g>
                        </g>
                    </g>
                </g>
                <g id="编组" transform="translate(118.000000, 13.000000)">
                    <mask id="mask-2" fill="white">
                        <use xlink:href="#path-1"></use>
                    </mask>
                    <g id="Clip-2"></g>
                    <path d="M159.7853,2.0889 L135.6373,2.0889 C135.1523,2.0889 134.7983,2.4369 134.7983,2.9149 L134.7983,5.4579 L146.1873,5.4579 L146.1873,17.2839 L133.9543,17.2839 C133.4683,17.2839 133.1143,17.6319 133.1143,18.1099 L133.1143,20.6529 L146.1873,20.6529 L146.1873,30.7599 L149.6223,30.7599 L149.6223,21.4789 C149.6223,21.0009 149.9763,20.6529 150.4613,20.6529 L162.5943,20.6529 L162.5943,18.4569 C162.5943,17.8449 162.0243,17.2839 161.4023,17.2839 L149.6223,17.2839 L149.6223,6.2839 C149.6223,5.8069 149.9763,5.4579 150.4613,5.4579 L160.9773,5.4579 L160.9773,3.2629 C160.9773,2.6499 160.4073,2.0889 159.7853,2.0889 L159.7853,2.0889 Z M85.8803,14.4539 L77.6923,14.4539 L77.6923,13.8469 L77.6923,6.7559 C77.6923,6.2779 78.0463,5.9299 78.5313,5.9299 L85.8803,5.9299 L85.8803,14.4539 Z M95.2663,14.4539 L89.2823,14.4539 L89.2823,6.7559 C89.2823,6.2779 89.6363,5.9299 90.1223,5.9299 L94.7063,5.9299 L94.7063,3.8019 C94.7063,3.1889 94.1363,2.6279 93.5153,2.6279 L69.1653,2.6279 C68.6803,2.6279 68.3263,2.9759 68.3263,3.4539 L68.3263,5.9299 L74.2563,5.9299 L74.2563,14.1839 L74.2563,14.4539 L67.4473,14.4539 C66.9623,14.4539 66.6083,14.8019 66.6083,15.2799 L66.6083,17.7559 L74.1553,17.7559 C73.7843,22.8429 72.3353,25.2689 67.6523,29.2439 L70.2133,31.8049 C75.2243,27.4069 77.0093,24.4059 77.5313,18.5109 C77.5703,18.0709 77.9093,17.7559 78.3653,17.7559 L85.8803,17.7559 L85.8803,30.8609 L89.2823,30.8609 L89.2823,18.5819 C89.2823,18.1039 89.6363,17.7559 90.1223,17.7559 L96.4583,17.7559 L96.4583,15.6269 C96.4583,15.0149 95.8883,14.4539 95.2663,14.4539 L95.2663,14.4539 Z M151.8133,14.3529 L154.4073,16.3069 C155.8253,14.5639 158.0733,11.2919 159.3763,9.2639 C159.6503,8.8379 159.4743,8.2099 158.9883,7.8609 L157.2373,6.6039 C156.1593,8.4899 153.3963,12.3989 151.8133,14.3529 L151.8133,14.3529 Z M186.1113,3.3359 L183.7863,5.3569 C184.8643,6.4009 186.4823,8.0189 188.1323,9.7709 L171.7213,10.2419 L180.5883,2.5649 C181.0613,2.1369 180.8683,1.2949 180.2143,0.9269 L178.5643,-0.0001 L166.9413,10.5789 L167.6743,13.4709 L191.1983,13.0719 C191.1983,13.0719 192.3773,14.4539 192.8823,14.9929 L195.0383,12.4999 C192.6133,9.7029 188.4693,5.4919 186.1113,3.3359 L186.1113,3.3359 Z M57.6453,10.5459 L50.3683,10.5459 L50.3683,6.4189 C50.3683,5.9409 50.7223,5.5929 51.2073,5.5929 L57.6453,5.5929 L57.6453,10.5459 Z M57.6453,18.5299 L50.3683,18.5299 L50.3683,14.7069 C50.3683,14.2289 50.7223,13.8809 51.2073,13.8809 L57.6453,13.8809 L57.6453,18.5299 Z M47.1003,10.5459 L39.8903,10.5459 L39.8903,6.4189 C39.8903,5.9409 40.2443,5.5929 40.7293,5.5929 L47.1003,5.5929 L47.1003,10.5459 Z M47.1003,18.5299 L39.8573,18.5299 C39.8903,18.0919 39.8903,17.6879 39.8903,17.1829 L39.8903,14.7069 C39.8903,14.2289 40.2443,13.8809 40.7293,13.8809 L47.1003,13.8809 L47.1003,18.5299 Z M59.7563,2.2569 L39.0723,2.2569 C37.6163,2.2569 36.5553,3.3029 36.5553,4.7369 L36.5553,15.9359 C36.5553,23.6509 35.8143,25.4369 32.9843,30.0529 L36.0833,31.7369 C37.9123,28.5519 39.0333,25.9569 39.5283,22.5709 C39.5893,22.1559 39.9173,21.8659 40.3533,21.8659 L47.1003,21.8659 L47.1003,30.4909 L50.3683,30.4909 L50.3683,22.6919 C50.3683,22.2139 50.7223,21.8659 51.2073,21.8659 L57.6453,21.8659 L57.6453,25.8079 C57.6453,27.2899 57.5103,27.4249 55.6243,27.5929 L53.4343,27.7959 L54.4453,31.2659 L56.7023,31.0639 C59.9363,30.7939 60.9483,30.0529 60.9483,26.9199 L60.9483,3.4309 C60.9483,2.8189 60.3783,2.2569 59.7563,2.2569 L59.7563,2.2569 Z M139.1283,7.5879 C138.7553,7.0739 138.0683,6.9169 137.6373,7.2419 L135.9453,8.5239 C137.2923,10.3099 139.9193,14.1169 141.3683,16.3739 L143.8623,14.2849 C142.6233,12.4409 140.5963,9.6119 139.1283,7.5879 L139.1283,7.5879 Z M188.7043,26.4819 L173.3083,26.4819 L173.3083,20.8389 C173.3083,20.3609 173.6623,20.0129 174.1473,20.0129 L188.7043,20.0129 L188.7043,26.4819 Z M190.9503,16.7449 L170.7453,16.7449 C170.2593,16.7449 169.9053,17.0929 169.9053,17.5709 L169.9053,31.0969 L173.3083,31.0969 L173.3083,29.6489 L188.7043,29.6489 L188.7043,31.0969 L192.1423,31.0969 L192.1423,17.9179 C192.1423,17.3059 191.5723,16.7449 190.9503,16.7449 L190.9503,16.7449 Z M113.9573,16.5089 L121.7283,16.5089 C120.6153,18.6649 119.1673,20.4509 117.0443,22.1019 C115.6253,20.8899 114.3853,19.5199 113.3223,17.9759 C112.8623,17.3089 113.2073,16.5089 113.9573,16.5089 L113.9573,16.5089 Z M127.5773,6.8059 L113.3383,6.8059 C113.6523,5.2069 113.8723,4.2499 114.0763,2.6839 C114.1423,2.1759 113.7783,1.6289 113.2473,1.4459 L110.8123,0.6069 C110.5753,2.7969 110.2733,4.8179 109.8683,6.8059 L105.2863,6.8059 C105.5723,6.1029 106.0003,4.2519 106.3033,2.8569 C106.4273,2.2899 105.9833,1.6609 105.3663,1.5209 L103.2653,1.0449 C102.9953,2.5269 102.2533,5.9299 101.7143,7.0749 L101.7143,9.9729 L109.0933,9.9729 C107.1053,17.0479 103.8373,22.4719 98.7833,27.5259 L101.2093,30.3559 C105.0173,26.2789 107.7123,22.6739 109.7343,18.5299 C110.9123,20.6529 112.3273,22.4719 114.0793,24.1229 C111.4863,25.6059 108.1163,26.9869 103.9723,28.2339 L105.4543,31.6359 C110.4073,29.9179 113.9783,28.3349 116.9093,26.4479 C119.9073,28.6039 123.5803,30.2889 128.2973,31.8719 L129.6453,28.2669 C125.7373,27.1219 122.4683,25.7399 119.8743,24.1569 C122.1653,22.1019 123.8843,19.7099 125.6023,16.4749 L125.6023,13.4089 L111.7213,13.4089 C112.0273,12.5179 112.2883,11.5799 112.5213,10.5969 C112.6103,10.2219 112.9283,9.9729 113.3333,9.9729 L128.7693,9.9729 L128.7693,7.9789 C128.7693,7.3669 128.1993,6.8059 127.5773,6.8059 L127.5773,6.8059 Z M11.6913,24.4939 L14.7233,23.1799 C13.7463,19.6759 11.7583,13.6449 10.5113,10.4109 L7.6813,11.3539 C8.8613,14.6219 10.7143,20.8889 11.6913,24.4939 L11.6913,24.4939 Z M20.6863,21.5289 C20.0463,17.7559 18.8673,12.2639 18.0583,9.3659 L14.9593,10.0059 C15.6663,12.9709 16.8793,18.8339 17.5193,22.6069 L20.6863,21.5289 Z M25.0323,10.2759 C23.6853,14.9249 21.5963,21.4279 19.7773,26.3129 L7.3753,26.3129 C6.8903,26.3129 6.5363,26.6619 6.5363,27.1389 L6.5363,29.5139 L30.2553,29.5139 L30.2553,27.4869 C30.2553,26.8739 29.6853,26.3129 29.0633,26.3129 L23.1123,26.3129 C24.7973,21.6639 26.9873,15.0599 28.1663,11.1179 L25.0323,10.2759 Z M125.2323,3.5379 L120.4513,0.6749 L117.9543,2.9989 C119.3353,3.8069 122.4023,5.6599 123.6483,6.5359 L125.2323,3.5379 Z M7.0413,8.3059 C7.0413,7.8279 7.3953,7.4799 7.8803,7.4799 L29.5473,7.4799 L29.5473,5.4859 C29.5473,4.8739 28.9773,4.3129 28.3553,4.3129 L19.3723,4.3129 L18.7643,0.5829 L15.2743,1.9159 L15.6663,4.3129 L6.3583,4.3129 C4.9023,4.3129 3.8413,5.3579 3.8413,6.7919 L3.8413,14.3859 C3.8403,21.4619 2.9653,24.6619 0.0003,29.8169 L3.0993,31.3329 C5.8963,25.9759 7.0413,22.3039 7.0413,14.2519 L7.0413,8.3059 Z" id="Fill-1" fill="#63696B" mask="url(#mask-2)"></path>
                </g>
            </g>
        </g>
    </g>
</svg>