<?xml version="1.0" encoding="UTF-8"?>
<svg width="121px" height="27px" viewBox="0 0 121 27" version="1.1" xmlns="http://www.w3.org/2000/svg" xmlns:xlink="http://www.w3.org/1999/xlink">
    <!-- Generator: Sketch 53.2 (72643) - https://sketchapp.com -->
    <title>视图/logo/应用平台</title>
    <desc>Created with Sketch.</desc>
    <g id="for-NCC" stroke="none" stroke-width="1" fill="none" fill-rule="evenodd">
        <g id="iuap5-品牌化" transform="translate(-971.000000, -7.000000)">
            <g id="导航/topbar/NCstyle" transform="translate(143.000000, 0.000000)">
                <g id="Group">
                    <g id="视图/logo/应用平台-反白" transform="translate(828.000000, 7.000000)">
                        <g id="应用平台logo">
                            <g id="XMLID_599_" fill-rule="nonzero">
                                <g id="XMLID_600_">
                                    <g id="XMLID_644_" transform="translate(30.606722, 0.000000)" fill="#FFFFFF">
                                        <path d="M1.43758844,2.46277857 C1.43758844,2.46277857 0.927476415,3.43859649 0.927476415,3.48506401 C0.881102594,3.57799905 0.927476415,3.67093409 1.02022406,3.67093409 L1.76220519,3.67093409 C1.76220519,3.67093409 3.47803656,0.278805121 3.52441038,0.232337601 C3.52441038,0.185870081 3.52441038,0.13940256 3.47803656,0.13940256 L2.78242925,0.13940256 C2.64330778,0.13940256 2.59693396,0.185870081 2.55056014,0.278805121 C2.55056014,0.325272641 1.99407429,1.34755808 1.99407429,1.34755808 C1.94770047,1.44049312 1.85495283,1.44049312 1.85495283,1.34755808 C1.85495283,1.34755808 1.39121462,0.371740161 1.39121462,0.325272641 C1.3448408,0.232337601 1.25209316,0.185870081 1.1129717,0.185870081 L0.463738208,0.185870081 C0.417364387,0.185870081 0.417364387,0.232337601 0.417364387,0.232337601 C0.417364387,0.232337601 1.43758844,2.46277857 1.43758844,2.46277857" id="XMLID_654_"></path>
                                        <path d="M3.75627948,2.13750593 C4.03452241,2.36984353 4.40551297,2.46277857 4.82287736,2.46277857 C5.28661557,2.46277857 5.65760613,2.32337601 5.88947524,2.09103841 C6.12134434,1.85870081 6.2604658,1.53342817 6.2604658,1.25462304 C6.2604658,0.882882883 6.12134434,0.604077762 5.88947524,0.418207681 C5.61123231,0.185870081 5.24024175,0.0929350403 4.77650354,0.0929350403 C4.31276533,0.0929350403 3.94177476,0.232337601 3.70990566,0.464675202 C3.47803656,0.697012802 3.33891509,1.02228544 3.33891509,1.30109056 C3.38528892,1.62636321 3.52441038,1.95163585 3.75627948,2.13750593 M4.35913915,1.06875296 C4.59100825,0.650545282 4.86925118,0.464675202 5.19386792,0.604077762 C5.51848467,0.743480322 5.56485849,1.06875296 5.28661557,1.53342817 C5.05474646,1.95163585 4.77650354,2.13750593 4.45188679,1.99810337 C4.17364387,1.81223329 4.12727005,1.48696064 4.35913915,1.06875296" id="XMLID_651_"></path>
                                        <path d="M10.341362,2.46277857 C10.341362,2.46277857 9.83125,3.43859649 9.83125,3.48506401 C9.78487618,3.57799905 9.83125,3.67093409 9.92399764,3.67093409 L10.6659788,3.67093409 C10.6659788,3.67093409 12.3818101,0.278805121 12.428184,0.232337601 C12.428184,0.185870081 12.428184,0.13940256 12.3818101,0.13940256 L11.6862028,0.13940256 C11.5470814,0.13940256 11.5007075,0.185870081 11.4543337,0.278805121 C11.4543337,0.325272641 10.8978479,1.34755808 10.8978479,1.34755808 C10.8514741,1.44049312 10.7587264,1.44049312 10.7587264,1.34755808 C10.7587264,1.34755808 10.2949882,0.371740161 10.2949882,0.325272641 C10.2486144,0.232337601 10.1558667,0.185870081 10.0167453,0.185870081 L9.36751179,0.185870081 C9.32113797,0.185870081 9.32113797,0.232337601 9.32113797,0.232337601 C9.32113797,0.232337601 10.341362,2.46277857 10.341362,2.46277857" id="XMLID_650_"></path>
                                        <path d="M12.6600531,2.13750593 C12.938296,2.36984353 13.3092866,2.46277857 13.7730248,2.46277857 C14.236763,2.46277857 14.6077535,2.32337601 14.8396226,2.09103841 C15.0714917,1.85870081 15.2106132,1.53342817 15.2106132,1.25462304 C15.2106132,0.882882883 15.0714917,0.604077762 14.8396226,0.418207681 C14.5613797,0.185870081 14.1903892,0.0929350403 13.7266509,0.0929350403 C13.2629127,0.0929350403 12.8919222,0.232337601 12.6600531,0.464675202 C12.428184,0.697012802 12.2890625,1.02228544 12.2890625,1.30109056 C12.2890625,1.62636321 12.428184,1.95163585 12.6600531,2.13750593 M13.2629127,1.06875296 C13.4947818,0.650545282 13.7730248,0.464675202 14.0976415,0.604077762 C14.4222583,0.743480322 14.4686321,1.06875296 14.1903892,1.53342817 C13.95852,1.95163585 13.6802771,2.13750593 13.3556604,1.99810337 C13.0774175,1.81223329 13.0310436,1.48696064 13.2629127,1.06875296" id="XMLID_647_"></path>
                                        <path d="M6.53870873,2.41631105 L7.32706368,2.41631105 C7.41981132,2.41631105 7.46618514,2.36984353 7.46618514,2.27690849 L7.46618514,0.650545282 C8.02267099,0.511142722 8.34728774,0.650545282 8.34728774,0.882882883 L8.34728774,2.27690849 C8.34728774,2.36984353 8.39366156,2.41631105 8.4864092,2.41631105 L9.27476415,2.41631105 L9.27476415,0.929350403 C9.27476415,0.185870081 8.30091392,-0.185870081 6.67783019,0.278805121 C6.58508255,0.325272641 6.53870873,0.371740161 6.53870873,0.511142722 L6.53870873,2.41631105 L6.53870873,2.41631105 L6.53870873,2.41631105 Z" id="XMLID_646_"></path>
                                        <path d="M18.0394163,2.32337601 C18.1321639,2.27690849 18.1785377,2.23044097 18.1785377,2.09103841 L18.1785377,0.185870081 L18.1785377,0.185870081 L17.3901828,0.185870081 C17.2974351,0.185870081 17.2510613,0.232337601 17.2510613,0.325272641 L17.2510613,1.95163585 C16.6945755,2.09103841 16.3699587,1.95163585 16.3699587,1.71929825 L16.3699587,0.325272641 C16.3699587,0.232337601 16.3235849,0.185870081 16.2308373,0.185870081 L15.4424823,0.185870081 L15.4424823,1.67283073 C15.4424823,2.41631105 16.3699587,2.78805121 18.0394163,2.32337601" id="XMLID_645_"></path>
                                    </g>
                                    <g id="XMLID_601_" transform="translate(0.000000, 3.252726)">
                                        <g id="XMLID_634_" transform="translate(36.635318, 2.788051)" fill="#FFFFFF">
                                            <g id="XMLID_640_" transform="translate(0.000000, 7.899478)">
                                                <path d="M12.149941,0.325272641 L8.85739976,0.325272641 L8.85739976,0.697012802 C8.85739976,3.57799905 7.88354953,4.97202466 5.88947524,4.92555714 C5.28661557,4.92555714 4.45188679,4.73968706 3.43166274,4.41441441 L3.43166274,0.325272641 L0.0463738208,0.325272641 L0.0463738208,12.5462304 L0.510112028,12.5462304 L0.510112028,12.5462304 C0.556485849,12.5462304 0.60285967,12.5462304 0.649233491,12.5462304 L0.695607311,12.5462304 C1.1129717,12.5462304 1.76220519,12.4997629 2.2259434,12.2674253 C3.24616745,11.7562826 3.47803656,11.2451399 3.47803656,9.15410147 L3.47803656,7.24893314 C4.45188679,7.52773826 5.24024175,7.66714083 5.93584906,7.66714083 C10.2022406,7.71360835 12.2890625,5.39023234 12.1963149,0.650545282 L12.1963149,0.325272641 L12.149941,0.325272641 L12.149941,0.325272641 Z" id="XMLID_643_"></path>
                                                <path d="M5.88947524,4.92555714 C5.28661557,4.92555714 4.45188679,4.73968706 3.43166274,4.41441441 L3.43166274,1.85870081 C2.36506486,2.46277857 1.20571934,2.74158369 0.0463738208,3.02038881 L0.0463738208,7.24893314 C1.20571934,8.08534851 2.36506486,8.92176387 3.43166274,9.85111427 L3.43166274,7.29540066 C4.40551297,7.57420578 5.19386792,7.71360835 5.88947524,7.71360835 C7.65168042,7.76007587 9.04289505,7.34186818 10.0631191,6.55192034 C9.32113797,5.80844002 8.62553066,5.01849218 7.88354953,4.22854433 C7.3734375,4.73968706 6.72420401,4.97202466 5.88947524,4.92555714 Z" id="XMLID_642_"></path>
                                                <path d="M12.149941,0.325272641 L8.85739976,0.325272641 L8.85739976,0.697012802 C8.85739976,1.20815552 8.81102594,1.71929825 8.76465212,2.13750593 C9.87762382,2.09103841 10.9905955,2.09103841 12.1035672,2.09103841 C12.149941,1.67283073 12.149941,1.20815552 12.149941,0.697012802 L12.149941,0.325272641 Z" id="XMLID_641_"></path>
                                            </g>
                                            <g id="XMLID_638_">
                                                <path d="M6.72420401,0.371740161 C5.47211085,0.371740161 4.35913915,0.697012802 3.33891509,1.30109056 L3.33891509,1.20815552 L3.33891509,0.418207681 L2.64330778,0.418207681 C2.2259434,0.418207681 1.71583137,0.511142722 1.29846698,0.697012802 C0.324616745,1.20815552 0.0927476415,1.67283073 0.0463738208,3.62446657 L0.0463738208,4.46088193 L0.0463738208,4.92555714 L0.0463738208,7.89947843 L3.43166274,7.89947843 L3.43166274,4.36794689 C4.45188679,3.76386913 5.47211085,3.43859649 6.39958726,3.43859649 C7.69805425,3.39212897 8.4864092,4.13560929 8.76465212,5.7619725 L11.3152123,2.88098625 C10.4341097,1.25462304 8.90377358,0.418207681 6.72420401,0.371740161 Z" id="XMLID_639_"></path>
                                            </g>
                                            <g id="XMLID_636_" transform="translate(8.347288, 2.788051)">
                                                <path d="M2.92155071,0.0929350403 L0.370990566,2.97392129 C0.463738208,3.39212897 0.463738208,3.90327169 0.463738208,4.46088193 L0.463738208,5.11142722 L3.75627948,5.11142722 L3.75627948,4.46088193 C3.8026533,2.64864865 3.52441038,1.20815552 2.92155071,0.0929350403 Z" id="XMLID_637_"></path>
                                            </g>
                                            <path d="M2.59693396,0.418207681 C2.17956958,0.418207681 1.66945755,0.511142722 1.25209316,0.697012802 C0.278242925,1.20815552 0.0463738208,1.67283073 0,3.62446657 L0,4.92555714 L3.29254127,1.20815552 L3.29254127,0.418207681 L2.59693396,0.418207681 L2.59693396,0.418207681 Z" id="XMLID_635_"></path>
                                        </g>
                                        <path d="M30.0966097,3.39212897 L30.0966097,3.39212897 C29.9574882,3.34566145 29.8647406,3.34566145 29.7256191,3.29919393 L29.3082547,3.20625889 C29.1691333,3.20625889 28.4271521,3.11332385 28.3807783,3.11332385 C28.2880307,3.11332385 27.6387972,3.11332385 27.4996757,3.11332385 L27.4996757,3.11332385 C26.6649469,3.11332385 25.876592,3.15979137 25.1809847,3.20625889 C24.7172465,3.29919393 24.1143868,3.39212897 23.7433962,3.53153153 C23.0477889,3.85680417 22.5840507,4.41441441 22.5376769,6.50545282 L22.5376769,6.50545282 C22.7231722,6.4589853 23.1405366,6.41251778 23.1869104,6.41251778 C23.5115271,6.36605026 23.8361439,6.31958274 24.1143868,6.27311522 C24.3926297,6.2266477 24.7172465,6.2266477 24.9954894,6.18018018 C25.7838443,6.13371266 26.5258255,6.08724514 27.2678066,6.08724514 C27.4069281,6.08724514 27.9170401,6.08724514 27.9170401,6.08724514 C28.1025354,6.08724514 28.2880307,6.13371266 28.4735259,6.18018018 L28.4735259,6.18018018 C29.5401238,6.41251778 30.0502358,7.20246562 29.9574882,8.50355619 L29.9574882,8.92176387 L28.5198998,8.92176387 C25.5519752,8.78236131 23.5579009,9.38643907 22.5376769,10.6875296 L33.3891509,10.6875296 L33.3891509,8.50355619 C33.5282724,5.71550498 32.4616745,3.99620673 30.0966097,3.39212897 Z" id="XMLID_633_" fill="#FFFFFF"></path>
                                        <g id="XMLID_631_" transform="translate(0.000000, 10.687530)" fill="#FFFFFF">
                                            <path d="M0.231869104,0.325272641 L0.231869104,7.76007587 C0.231869104,7.76007587 1.48396226,7.89947843 2.27231722,7.48127074 C3.33891509,6.97012802 3.52441038,6.41251778 3.52441038,4.18207681 L3.52441038,0.325272641 L0.231869104,0.325272641 L0.231869104,0.325272641 Z" id="XMLID_632_"></path>
                                        </g>
                                        <path d="M1.57670991,0.697012802 C0.649233491,1.161688 0.278242925,1.99810337 0.278242925,4.32147937 C0.278242925,4.32147937 0.741981132,3.85680417 1.48396226,3.57799905 C1.99407429,3.39212897 2.41143868,3.11332385 2.6896816,2.92745377 C3.47803656,2.32337601 3.61715802,1.62636321 3.61715802,0.371740161 C3.52441038,0.371740161 2.27231722,0.278805121 1.57670991,0.697012802 Z" id="XMLID_630_" fill="#FFFFFF"></path>
                                        <path d="M27.4996757,3.15979137 C26.6649469,3.15979137 25.876592,3.20625889 25.1809847,3.25272641 C24.7172465,3.34566145 24.1143868,3.43859649 23.7433962,3.57799905 C23.0477889,3.90327169 22.5840507,4.46088193 22.5376769,6.55192034 C24.2535083,6.27311522 25.8302182,6.13371266 27.2678066,6.13371266 C27.7315448,6.08724514 28.1489092,6.13371266 28.4735259,6.18018018 L30.7458432,3.57799905 C29.9574882,3.25272641 28.8445165,3.11332385 27.4996757,3.15979137 Z" id="XMLID_629_" fill="#FFFFFF"></path>
                                        <path d="M9.69212854,3.15979137 L9.69212854,3.15979137 C9.64575472,3.15979137 9.5993809,3.15979137 9.55300708,3.15979137 L9.50663325,3.15979137 C9.08926887,3.15979137 8.44003538,3.20625889 8.02267099,3.43859649 C6.95607311,3.94973921 6.77057783,4.50734945 6.77057783,6.73779042 L6.77057783,7.06306306 L6.77057783,7.06306306 L6.77057783,9.43290659 L10.0631191,5.71550498 L10.0631191,3.15979137 L9.69212854,3.15979137 L9.69212854,3.15979137 Z" id="XMLID_628_" fill="#FFB400"></path>
                                        <g id="XMLID_624_" transform="translate(22.259434, 8.828829)" fill="#FFFFFF">
                                            <path d="M2.27231722,1.85870081 L3.75627948,0.185870081 C2.13319575,0.418207681 0.973850236,0.975817923 0.278242925,1.85870081 L2.27231722,1.85870081 Z" id="XMLID_625_"></path>
                                        </g>
                                        <g id="XMLID_621_" transform="translate(15.303361, 5.111427)" fill="#FFFFFF">
                                            <polygon id="XMLID_622_" points="3.5707842 5.57610242 3.5707842 0.232337601 0.185495283 2.60218113 0.185495283 5.57610242"></polygon>
                                        </g>
                                        <path d="M0.231869104,11.0128023 L0.231869104,13.6614509 C1.3448408,13.754386 2.41143868,13.8008535 3.52441038,13.754386 L3.52441038,11.0128023 L0.231869104,11.0128023 L0.231869104,11.0128023 Z" id="XMLID_619_" fill="#FFFFFF"></path>
                                        <g id="XMLID_612_" transform="translate(21.331958, 10.687530)" fill="#FFFFFF">
                                            <path d="M0.324616745,2.97392129 L0.324616745,3.48506401 C0.417364387,6.31958274 1.90132665,7.71360835 5.05474646,7.71360835 C6.30683962,7.71360835 7.51255896,7.43480322 8.76465212,6.87719298 L8.76465212,7.71360835 L12.0571934,7.71360835 L12.0571934,0.278805121 L1.02022406,0.278805121 C0.556485849,1.02228544 0.324616745,1.90516833 0.324616745,2.97392129 Z M7.18794222,1.02228544 L8.62553066,1.02228544 L8.62553066,4.22854433 C7.79080189,4.78615458 6.72420401,5.0649597 5.42573703,5.0649597 C4.26639151,5.0649597 3.70990566,4.6002845 3.61715802,3.71740161 L3.61715802,3.02038881 C3.61715802,1.57989569 4.73012972,0.975817923 7.18794222,1.02228544 Z" id="XMLID_615_"></path>
                                            <path d="M3.75627948,4.18207681 C2.73605542,3.11332385 1.62308373,2.18397345 0.556485849,1.30109056 C0.417364387,1.81223329 0.324616745,2.36984353 0.324616745,2.97392129 L0.324616745,3.48506401 C0.417364387,6.31958274 1.90132665,7.71360835 5.05474646,7.71360835 C5.51848467,7.71360835 6.0285967,7.66714083 6.49233491,7.57420578 C5.84310142,6.59838786 5.1474941,5.66903746 4.35913915,4.8326221 C4.08089623,4.69321954 3.89540094,4.50734945 3.75627948,4.18207681 Z" id="XMLID_614_"></path>
                                            <path d="M11.0369693,0.325272641 C10.2486144,2.55571361 9.41388561,4.8326221 8.4864092,7.01659554 C8.57915684,6.97012802 8.67190448,6.9236605 8.76465212,6.87719298 L8.76465212,7.71360835 L9.46025943,7.71360835 C9.87762382,7.71360835 10.3877358,7.6206733 10.8051002,7.43480322 C11.7789505,6.97012802 12.0108196,6.4589853 12.0571934,4.69321954 L12.0571934,0.278805121 L11.0369693,0.278805121 L11.0369693,0.325272641 Z" id="XMLID_613_"></path>
                                        </g>
                                        <path d="M3.52441038,10.6875296 L3.52441038,3.81033665 L3.52441038,3.06685633 C3.52441038,3.06685633 3.19979363,3.53153153 2.55056014,3.90327169 C2.08682193,4.18207681 1.71583137,4.32147937 1.25209316,4.55381697 C0.463738208,4.97202466 0.278242925,5.34376482 0.278242925,5.94784258 L0.278242925,6.13371266 L0.278242925,7.10953058 L0.278242925,7.29540066 L0.278242925,10.6410621 L3.52441038,10.6410621 L3.52441038,10.6875296 L3.52441038,10.6875296 Z" id="XMLID_611_" fill="#FFFFFF"></path>
                                        <g id="XMLID_609_" transform="translate(6.492335, 4.646752)" fill="#FFFFFF">
                                            <polygon id="XMLID_610_" points="3.52441038 6.04077762 3.52441038 0.325272641 0.231869104 3.15979137 0.231869104 6.04077762"></polygon>
                                        </g>
                                        <path d="M18.0394163,3.15979137 C17.6220519,3.15979137 17.1119399,3.25272641 16.7409493,3.43859649 C15.6743514,3.94973921 15.4888561,4.50734945 15.4888561,6.73779042 L15.4888561,7.06306306 L15.4888561,7.06306306 L15.4888561,10.269322 L18.874145,6.41251778 L18.874145,3.15979137 L18.0394163,3.15979137 L18.0394163,3.15979137 Z" id="XMLID_608_" fill="#FFFFFF"></path>
                                        <path d="M9.69212854,3.15979137 L9.69212854,3.15979137 C9.64575472,3.15979137 9.5993809,3.15979137 9.55300708,3.15979137 L9.50663325,3.15979137 C9.08926887,3.15979137 8.44003538,3.20625889 8.02267099,3.43859649 C6.95607311,3.94973921 6.77057783,4.50734945 6.77057783,6.73779042 L6.77057783,7.06306306 L6.77057783,7.06306306 L6.77057783,9.43290659 L10.0631191,5.71550498 L10.0631191,3.15979137 L9.69212854,3.15979137 L9.69212854,3.15979137 Z" id="XMLID_607_" fill="#FFFFFF"></path>
                                        <g id="XMLID_603_" transform="translate(6.492335, 10.687530)" fill="#FFFFFF">
                                            <path d="M8.99652123,0.325272641 L8.99652123,3.71740161 C7.74442807,4.46088193 6.58508255,4.8326221 5.51848467,4.8326221 C4.22001769,4.8326221 3.5707842,3.90327169 3.5707842,2.04457089 L3.5707842,0.325272641 L0.278242925,0.325272641 L0.278242925,2.04457089 C0.231869104,5.90137506 1.80857901,7.76007587 5.00837264,7.71360835 C6.44596108,7.71360835 7.79080189,7.3883357 9.04289505,6.78425794 L9.04289505,7.71360835 L9.50663325,7.71360835 L9.50663325,7.71360835 C9.92399764,7.71360835 10.6659788,7.71360835 11.2224646,7.43480322 C12.2890625,6.9236605 12.4745578,6.36605026 12.4745578,4.13560929 L12.4745578,3.81033665 L12.4745578,3.81033665 L12.4745578,0.278805121 L8.99652123,0.278805121 L8.99652123,0.325272641 L8.99652123,0.325272641 Z" id="XMLID_606_"></path>
                                            <path d="M0.231869104,0.325272641 L0.231869104,2.04457089 C0.231869104,2.27690849 0.231869104,2.50924609 0.231869104,2.74158369 C1.3448408,2.55571361 2.4578125,2.27690849 3.52441038,1.95163585 L3.52441038,0.325272641 L0.231869104,0.325272641 Z" id="XMLID_605_"></path>
                                            <path d="M8.99652123,0.325272641 L8.99652123,3.71740161 C7.74442807,4.46088193 6.58508255,4.8326221 5.51848467,4.8326221 C4.915625,4.8326221 4.49826061,4.64675202 4.17364387,4.27501185 C3.52441038,5.20436226 2.78242925,6.08724514 2.08682193,6.97012802 C2.82880307,7.52773826 3.8026533,7.76007587 5.05474646,7.71360835 C5.84310142,7.71360835 6.58508255,7.6206733 7.32706368,7.43480322 C8.67190448,5.57610242 10.3877358,3.90327169 12.149941,2.50924609 C12.2426887,2.46277857 12.3354363,2.41631105 12.4745578,2.36984353 L12.4745578,0.278805121 L8.99652123,0.278805121 L8.99652123,0.325272641 L8.99652123,0.325272641 Z" id="XMLID_604_"></path>
                                        </g>
                                    </g>
                                </g>
                            </g>
                            <g id="XMLID_536_" transform="translate(55.962500, 6.054054)" fill="#FFFFFF" fill-rule="nonzero">
                                <path d="M15.3302679,1.1217806 L15.3302679,2.24356121 L3.5770625,2.24356121 L2.83377679,15.845151 L0.139366071,15.845151 L0.9755625,1.1217806 L7.71158929,1.1217806 L7.94386607,0.093481717 L10.2201786,0.0467408585 L10.2201786,1.16852146 L15.3302679,1.1217806 L15.3302679,1.1217806 Z M15.3302679,14.7233704 L15.3302679,15.845151 L3.71642857,15.845151 L3.71642857,14.7233704 L11.2421964,14.7233704 L12.4964911,3.69252782 L15.0050804,3.69252782 L13.7507857,14.7233704 L15.3302679,14.7233704 Z M4.36680357,5.60890302 L6.45729464,3.69252782 L7.57222321,13.3678855 L5.203,13.3678855 L4.36680357,5.60890302 Z M10.8705536,13.4146264 L8.454875,13.4146264 L7.61867857,5.60890302 L9.70916964,3.69252782 L10.8705536,13.4146264 Z" id="XMLID_561_"></path>
                                <path d="M31.7290089,0.794594595 L31.7290089,15.7516693 L28.8952321,15.7516693 L29.0345982,13.9755167 L29.0345982,10.7503975 L25.8756339,10.7503975 L25.8756339,15.7516693 L23.1347679,15.7516693 L23.1347679,10.7503975 L19.9293482,10.7503975 L19.6506161,15.7516693 L16.9562054,15.7516693 L17.6994911,0.794594595 L31.7290089,0.794594595 Z M23.1347679,9.58187599 L23.1347679,6.35675676 L20.1151696,6.35675676 L19.9293482,9.58187599 L23.1347679,9.58187599 Z M23.1347679,5.14149444 L23.1347679,1.96311606 L20.3009911,1.96311606 L20.1151696,5.14149444 L23.1347679,5.14149444 Z M29.0345982,5.14149444 L29.0345982,1.96311606 L25.8756339,1.96311606 L25.8756339,5.14149444 L29.0345982,5.14149444 Z M29.0345982,9.58187599 L29.0345982,6.35675676 L25.8756339,6.35675676 L25.8756339,9.58187599 L29.0345982,9.58187599 Z" id="XMLID_566_"></path>
                                <path d="M39.1154107,15.7516693 L39.1154107,9.81558029 L32.9368482,9.81558029 L32.9368482,8.55357711 L39.1154107,8.55357711 L39.1154107,1.86963434 L33.3549464,1.86963434 L33.3549464,0.607631161 L47.8954732,0.607631161 L47.8954732,1.86963434 L42.0420982,1.86963434 L42.0420982,8.55357711 L48.2206607,8.55357711 L48.2206607,9.81558029 L42.0420982,9.81558029 L42.0420982,15.7516693 L39.1154107,15.7516693 Z M36.421,2.71096979 L38.0469375,7.38505564 L35.3525268,7.38505564 L34.1446875,3.97297297 L36.421,2.71096979 Z M45.8514375,7.38505564 L43.1570268,7.38505564 L44.7829643,2.71096979 L46.9663661,3.64578696 L45.8514375,7.38505564 Z" id="XMLID_579_"></path>
                                <path d="M50.1253304,6.35675676 L53.33075,0.607631161 L56.1645268,0.607631161 L53.6094821,5.14149444 L60.8565179,5.14149444 L58.8124821,1.30874404 L61.0887946,1.30874404 L64.7587679,6.3100159 L50.1253304,6.35675676 L50.1253304,6.35675676 Z M50.6363393,7.24483307 L63.9690268,7.24483307 L63.9690268,15.7984102 L50.6363393,15.7984102 L50.6363393,7.24483307 Z M61.13525,8.46009539 L53.4701161,8.46009539 L53.4701161,14.5831479 L61.13525,14.5831479 L61.13525,8.46009539 Z" id="XMLID_583_"></path>
                            </g>
                        </g>
                    </g>
                </g>
            </g>
        </g>
    </g>
</svg>