<?xml version="1.0" encoding="UTF-8"?>
<svg width="319px" height="57px" viewBox="0 0 319 57" version="1.1" xmlns="http://www.w3.org/2000/svg" xmlns:xlink="http://www.w3.org/1999/xlink">
    <!-- Generator: Sketch 54.1 (76490) - https://sketchapp.com -->
    <title>应用开发平台-繁体</title>
    <desc>Created with Sketch.</desc>
    <g id="Page-1" stroke="none" stroke-width="1" fill="none" fill-rule="evenodd">
        <g id="logo繁体复制" transform="translate(-31.000000, -19.000000)">
            <g id="应用开发平台-繁体" transform="translate(31.000000, 19.000000)">
                <g id="logo繁体" fill-rule="nonzero">
                    <g id="iuap应用平台logo复制">
                        <g id="XMLID_599_">
                            <g id="XMLID_600_">
                                <g id="XMLID_644_" transform="translate(66.000000, 0.000000)" fill="#717071">
                                    <path d="M3.1,5.3 C3.1,5.3 2,7.4 2,7.5 C1.9,7.7 2,7.9 2.2,7.9 L3.8,7.9 C3.8,7.9 7.5,0.6 7.6,0.5 C7.6,0.4 7.6,0.3 7.5,0.3 L6,0.3 C5.7,0.3 5.6,0.4 5.5,0.6 C5.5,0.7 4.3,2.9 4.3,2.9 C4.2,3.1 4,3.1 4,2.9 C4,2.9 3,0.8 3,0.7 C2.9,0.5 2.7,0.4 2.4,0.4 L1,0.4 C0.9,0.4 0.9,0.5 0.9,0.5 C0.9,0.5 3.1,5.3 3.1,5.3" id="XMLID_654_"></path>
                                    <path d="M8.1,4.6 C8.7,5.1 9.5,5.3 10.4,5.3 C11.4,5.3 12.2,5 12.7,4.5 C13.2,4 13.5,3.3 13.5,2.7 C13.5,1.9 13.2,1.3 12.7,0.9 C12.1,0.4 11.3,0.2 10.3,0.2 C9.3,0.2 8.5,0.5 8,1 C7.5,1.5 7.2,2.2 7.2,2.8 C7.3,3.5 7.6,4.2 8.1,4.6 M9.4,2.3 C9.9,1.4 10.5,1 11.2,1.3 C11.9,1.6 12,2.3 11.4,3.3 C10.9,4.2 10.3,4.6 9.6,4.3 C9,3.9 8.9,3.2 9.4,2.3" id="XMLID_651_"></path>
                                    <path d="M22.3,5.3 C22.3,5.3 21.2,7.4 21.2,7.5 C21.1,7.7 21.2,7.9 21.4,7.9 L23,7.9 C23,7.9 26.7,0.6 26.8,0.5 C26.8,0.4 26.8,0.3 26.7,0.3 L25.2,0.3 C24.9,0.3 24.8,0.4 24.7,0.6 C24.7,0.7 23.5,2.9 23.5,2.9 C23.4,3.1 23.2,3.1 23.2,2.9 C23.2,2.9 22.2,0.8 22.2,0.7 C22.1,0.5 21.9,0.4 21.6,0.4 L20.2,0.4 C20.1,0.4 20.1,0.5 20.1,0.5 C20.1,0.5 22.3,5.3 22.3,5.3" id="XMLID_650_"></path>
                                    <path d="M27.3,4.6 C27.9,5.1 28.7,5.3 29.7,5.3 C30.7,5.3 31.5,5 32,4.5 C32.5,4 32.8,3.3 32.8,2.7 C32.8,1.9 32.5,1.3 32,0.9 C31.4,0.4 30.6,0.2 29.6,0.2 C28.6,0.2 27.8,0.5 27.3,1 C26.8,1.5 26.5,2.2 26.5,2.8 C26.5,3.5 26.8,4.2 27.3,4.6 M28.6,2.3 C29.1,1.4 29.7,1 30.4,1.3 C31.1,1.6 31.2,2.3 30.6,3.3 C30.1,4.2 29.5,4.6 28.8,4.3 C28.2,3.9 28.1,3.2 28.6,2.3" id="XMLID_647_"></path>
                                    <path d="M14.1,5.2 L15.8,5.2 C16,5.2 16.1,5.1 16.1,4.9 L16.1,1.4 C17.3,1.1 18,1.4 18,1.9 L18,4.9 C18,5.1 18.1,5.2 18.3,5.2 L20,5.2 L20,2 C20,0.4 17.9,-0.4 14.4,0.6 C14.2,0.7 14.1,0.8 14.1,1.1 L14.1,5.2 L14.1,5.2 L14.1,5.2 Z" id="XMLID_646_"></path>
                                    <path d="M38.9,5 C39.1,4.9 39.2,4.8 39.2,4.5 L39.2,0.4 L39.2,0.4 L37.5,0.4 C37.3,0.4 37.2,0.5 37.2,0.7 L37.2,4.2 C36,4.5 35.3,4.2 35.3,3.7 L35.3,0.7 C35.3,0.5 35.2,0.4 35,0.4 L33.3,0.4 L33.3,3.6 C33.3,5.2 35.3,6 38.9,5" id="XMLID_645_"></path>
                                </g>
                                <g id="XMLID_601_" transform="translate(0.000000, 7.000000)">
                                    <g id="XMLID_634_" transform="translate(79.000000, 6.000000)">
                                        <g id="XMLID_640_" transform="translate(0.000000, 17.000000)">
                                            <path d="M26.2,0.7 L19.1,0.7 L19.1,1.5 C19.1,7.7 17,10.7 12.7,10.6 C11.4,10.6 9.6,10.2 7.4,9.5 L7.4,0.7 L0.1,0.7 L0.1,27 L1.1,27 L1.1,27 C1.2,27 1.3,27 1.4,27 L1.5,27 C2.4,27 3.8,26.9 4.8,26.4 C7,25.3 7.5,24.2 7.5,19.7 L7.5,15.6 C9.6,16.2 11.3,16.5 12.8,16.5 C22,16.6 26.5,11.6 26.3,1.4 L26.3,0.7 L26.2,0.7 L26.2,0.7 Z" id="XMLID_643_" fill="#D61519"></path>
                                            <path d="M12.7,10.6 C11.4,10.6 9.6,10.2 7.4,9.5 L7.4,4 C5.1,5.3 2.6,5.9 0.1,6.5 L0.1,15.6 C2.6,17.4 5.1,19.2 7.4,21.2 L7.4,15.7 C9.5,16.3 11.2,16.6 12.7,16.6 C16.5,16.7 19.5,15.8 21.7,14.1 C20.1,12.5 18.6,10.8 17,9.1 C15.9,10.2 14.5,10.7 12.7,10.6 Z" id="XMLID_642_" fill="#E60014"></path>
                                            <path d="M26.2,0.7 L19.1,0.7 L19.1,1.5 C19.1,2.6 19,3.7 18.9,4.6 C21.3,4.5 23.7,4.5 26.1,4.5 C26.2,3.6 26.2,2.6 26.2,1.5 L26.2,0.7 Z" id="XMLID_641_" fill="#E60014"></path>
                                        </g>
                                        <g id="XMLID_638_" fill="#0096FF">
                                            <path d="M14.5,0.8 C11.8,0.8 9.4,1.5 7.2,2.8 L7.2,2.6 L7.2,0.9 L5.7,0.9 C4.8,0.9 3.7,1.1 2.8,1.5 C0.7,2.6 0.2,3.6 0.1,7.8 L0.1,9.6 L0.1,10.6 L0.1,17 L7.4,17 L7.4,9.4 C9.6,8.1 11.8,7.4 13.8,7.4 C16.6,7.3 18.3,8.9 18.9,12.4 L24.4,6.2 C22.5,2.7 19.2,0.9 14.5,0.8 Z" id="XMLID_639_"></path>
                                        </g>
                                        <g id="XMLID_636_" transform="translate(18.000000, 6.000000)" fill="#69CD00">
                                            <path d="M6.3,0.2 L0.8,6.4 C1,7.3 1,8.4 1,9.6 L1,11 L8.1,11 L8.1,9.6 C8.2,5.7 7.6,2.6 6.3,0.2 Z" id="XMLID_637_"></path>
                                        </g>
                                        <path d="M5.6,0.9 C4.7,0.9 3.6,1.1 2.7,1.5 C0.6,2.6 0.1,3.6 0,7.8 L0,10.6 L7.1,2.6 L7.1,0.9 L5.6,0.9 L5.6,0.9 Z" id="XMLID_635_" fill="#FFB400"></path>
                                    </g>
                                    <path d="M64.9,7.3 L64.9,7.3 C64.6,7.2 64.4,7.2 64.1,7.1 L63.2,6.9 C62.9,6.9 61.3,6.7 61.2,6.7 C61,6.7 59.6,6.7 59.3,6.7 L59.3,6.7 C57.5,6.7 55.8,6.8 54.3,6.9 C53.3,7.1 52,7.3 51.2,7.6 C49.7,8.3 48.7,9.5 48.6,14 L48.6,14 C49,13.9 49.9,13.8 50,13.8 C50.7,13.7 51.4,13.6 52,13.5 C52.6,13.4 53.3,13.4 53.9,13.3 C55.6,13.2 57.2,13.1 58.8,13.1 C59.1,13.1 60.2,13.1 60.2,13.1 C60.6,13.1 61,13.2 61.4,13.3 L61.4,13.3 C63.7,13.8 64.8,15.5 64.6,18.3 L64.6,19.2 L61.5,19.2 C55.1,18.9 50.8,20.2 48.6,23 L72,23 L72,18.3 C72.3,12.3 70,8.6 64.9,7.3 Z" id="XMLID_633_" fill="#FFB400"></path>
                                    <g id="XMLID_631_" transform="translate(0.000000, 23.000000)" fill="#D61519">
                                        <path d="M0.5,0.7 L0.5,16.7 C0.5,16.7 3.2,17 4.9,16.1 C7.2,15 7.6,13.8 7.6,9 L7.6,0.7 L0.5,0.7 L0.5,0.7 Z" id="XMLID_632_"></path>
                                    </g>
                                    <path d="M3.4,1.5 C1.4,2.5 0.6,4.3 0.6,9.3 C0.6,9.3 1.6,8.3 3.2,7.7 C4.3,7.3 5.2,6.7 5.8,6.3 C7.5,5 7.8,3.5 7.8,0.8 C7.6,0.8 4.9,0.6 3.4,1.5 Z" id="XMLID_630_" fill="#69CD00"></path>
                                    <path d="M59.3,6.8 C57.5,6.8 55.8,6.9 54.3,7 C53.3,7.2 52,7.4 51.2,7.7 C49.7,8.4 48.7,9.6 48.6,14.1 C52.3,13.5 55.7,13.2 58.8,13.2 C59.8,13.1 60.7,13.2 61.4,13.3 L66.3,7.7 C64.6,7 62.2,6.7 59.3,6.8 Z" id="XMLID_629_" fill="#69CD00"></path>
                                    <path d="M20.9,6.8 L20.9,6.8 C20.8,6.8 20.7,6.8 20.6,6.8 L20.5,6.8 C19.6,6.8 18.2,6.9 17.3,7.4 C15,8.5 14.6,9.7 14.6,14.5 L14.6,15.2 L14.6,15.2 L14.6,20.3 L21.7,12.3 L21.7,6.8 L20.9,6.8 L20.9,6.8 Z" id="XMLID_628_" fill="#FFB400"></path>
                                    <polygon id="XMLID_627_" fill="#FFFFFF" points="98.2 23 105.3 23 105.3 23.7 98.2 23.7"></polygon>
                                    <polygon id="XMLID_626_" fill="#FFFFFF" points="79.1 23 86.4 23 86.4 23.7 79.1 23.7"></polygon>
                                    <g id="XMLID_624_" transform="translate(48.000000, 19.000000)" fill="#69CD00">
                                        <path d="M4.9,4 L8.1,0.4 C4.6,0.9 2.1,2.1 0.6,4 L4.9,4 Z" id="XMLID_625_"></path>
                                    </g>
                                    <polygon id="XMLID_623_" fill="#FFFFFF" points="33.4 23 40.7 23 40.7 23.7 33.4 23.7"></polygon>
                                    <g id="XMLID_621_" transform="translate(33.000000, 11.000000)" fill="#69CD00">
                                        <polygon id="XMLID_622_" points="7.7 12 7.7 0.5 0.4 5.6 0.4 12"></polygon>
                                    </g>
                                    <polygon id="XMLID_620_" fill="#FFFFFF" points="14.5 23 21.6 23 21.6 23.7 14.5 23.7"></polygon>
                                    <path d="M0.5,23.7 L0.5,29.4 C2.9,29.6 5.2,29.7 7.6,29.6 L7.6,23.7 L0.5,23.7 L0.5,23.7 Z" id="XMLID_619_" fill="#E60014"></path>
                                    <polygon id="XMLID_618_" fill="#FFFFFF" points="0.5 23 7.6 23 7.6 23.7 0.5 23.7"></polygon>
                                    <g id="XMLID_612_" transform="translate(46.000000, 23.000000)">
                                        <path d="M0.7,6.4 L0.7,7.5 C0.9,13.6 4.1,16.6 10.9,16.6 C13.6,16.6 16.2,16 18.9,14.8 L18.9,16.6 L26,16.6 L26,0.6 L2.2,0.6 C1.2,2.2 0.7,4.1 0.7,6.4 Z M15.5,2.2 L18.6,2.2 L18.6,9.1 C16.8,10.3 14.5,10.9 11.7,10.9 C9.2,10.9 8,9.9 7.8,8 L7.8,6.5 C7.8,3.4 10.2,2.1 15.5,2.2 Z" id="XMLID_615_" fill="#D61519"></path>
                                        <path d="M8.1,9 C5.9,6.7 3.5,4.7 1.2,2.8 C0.9,3.9 0.7,5.1 0.7,6.4 L0.7,7.5 C0.9,13.6 4.1,16.6 10.9,16.6 C11.9,16.6 13,16.5 14,16.3 C12.6,14.2 11.1,12.2 9.4,10.4 C8.8,10.1 8.4,9.7 8.1,9 Z" id="XMLID_614_" fill="#E60014"></path>
                                        <path d="M23.8,0.7 C22.1,5.5 20.3,10.4 18.3,15.1 C18.5,15 18.7,14.9 18.9,14.8 L18.9,16.6 L20.4,16.6 C21.3,16.6 22.4,16.4 23.3,16 C25.4,15 25.9,13.9 26,10.1 L26,0.6 L23.8,0.6 L23.8,0.7 Z" id="XMLID_613_" fill="#E60014"></path>
                                    </g>
                                    <path d="M7.6,23 L7.6,8.2 L7.6,6.6 C7.6,6.6 6.9,7.6 5.5,8.4 C4.5,9 3.7,9.3 2.7,9.8 C1,10.7 0.6,11.5 0.6,12.8 L0.6,13.2 L0.6,15.3 L0.6,15.7 L0.6,22.9 L7.6,22.9 L7.6,23 L7.6,23 Z" id="XMLID_611_" fill="#FFB400"></path>
                                    <g id="XMLID_609_" transform="translate(14.000000, 10.000000)" fill="#69CD00">
                                        <polygon id="XMLID_610_" points="7.6 13 7.6 0.7 0.5 6.8 0.5 13"></polygon>
                                    </g>
                                    <path d="M38.9,6.8 C38,6.8 36.9,7 36.1,7.4 C33.8,8.5 33.4,9.7 33.4,14.5 L33.4,15.2 L33.4,15.2 L33.4,22.1 L40.7,13.8 L40.7,6.8 L38.9,6.8 L38.9,6.8 Z" id="XMLID_608_" fill="#0096FF"></path>
                                    <path d="M20.9,6.8 L20.9,6.8 C20.8,6.8 20.7,6.8 20.6,6.8 L20.5,6.8 C19.6,6.8 18.2,6.9 17.3,7.4 C15,8.5 14.6,9.7 14.6,14.5 L14.6,15.2 L14.6,15.2 L14.6,20.3 L21.7,12.3 L21.7,6.8 L20.9,6.8 L20.9,6.8 Z" id="XMLID_607_" fill="#FFB400"></path>
                                    <g id="XMLID_603_" transform="translate(14.000000, 23.000000)">
                                        <path d="M19.4,0.7 L19.4,8 C16.7,9.6 14.2,10.4 11.9,10.4 C9.1,10.4 7.7,8.4 7.7,4.4 L7.7,0.7 L0.6,0.7 L0.6,4.4 C0.5,12.7 3.9,16.7 10.8,16.6 C13.9,16.6 16.8,15.9 19.5,14.6 L19.5,16.6 L20.5,16.6 L20.5,16.6 C21.4,16.6 23,16.6 24.2,16 C26.5,14.9 26.9,13.7 26.9,8.9 L26.9,8.2 L26.9,8.2 L26.9,0.6 L19.4,0.6 L19.4,0.7 L19.4,0.7 Z" id="XMLID_606_" fill="#D61519"></path>
                                        <path d="M0.5,0.7 L0.5,4.4 C0.5,4.9 0.5,5.4 0.5,5.9 C2.9,5.5 5.3,4.9 7.6,4.2 L7.6,0.7 L0.5,0.7 Z" id="XMLID_605_" fill="#E60014"></path>
                                        <path d="M19.4,0.7 L19.4,8 C16.7,9.6 14.2,10.4 11.9,10.4 C10.6,10.4 9.7,10 9,9.2 C7.6,11.2 6,13.1 4.5,15 C6.1,16.2 8.2,16.7 10.9,16.6 C12.6,16.6 14.2,16.4 15.8,16 C18.7,12 22.4,8.4 26.2,5.4 C26.4,5.3 26.6,5.2 26.9,5.1 L26.9,0.6 L19.4,0.6 L19.4,0.7 L19.4,0.7 Z" id="XMLID_604_" fill="#E60014"></path>
                                    </g>
                                    <path d="M72,23 L48.7,23 C48.5,23.2 48.4,23.5 48.2,23.7 L72,23.7 L72,23 Z" id="XMLID_602_" fill="#FFFFFF"></path>
                                </g>
                            </g>
                        </g>
                    </g>
                </g>
                <path d="M296.131,24.862 L310.445,24.862 L310.445,23.853 L296.131,23.853 L296.131,24.862 Z M292.804,21.726 C292.252,21.726 291.804,22.174 291.804,22.726 L291.804,26.954 L314.737,26.954 L314.737,22.726 C314.737,22.174 314.289,21.726 313.737,21.726 L292.804,21.726 Z M299.268,34.851 C300.458,34.382 301.396,33.913 302.549,33.228 L307.056,33.228 L306.118,34.022 C306.516,34.201 306.912,34.382 307.345,34.634 L299.268,34.851 Z M317.45,41.665 L305.398,41.665 L305.398,40.619 L314.809,40.619 L314.809,39.204 C314.809,38.652 314.361,38.204 313.809,38.204 L305.398,38.204 L305.398,37.05 C307.85,36.942 310.049,36.942 311.491,36.905 C312.32,37.374 313.077,37.772 313.654,38.06 L315.421,36.076 C313.799,35.247 311.852,34.201 310.013,33.228 L313.691,33.228 L313.691,30.92 L292.778,30.92 L292.778,29.983 L313.871,29.983 L313.871,32.976 L318.09,32.976 L318.09,28.856 C318.09,28.303 317.642,27.856 317.09,27.856 L289.451,27.856 C288.899,27.856 288.451,28.303 288.451,28.856 L288.451,32.94 L292.741,32.94 L292.741,33.228 L296.239,33.228 C295.121,33.769 294.184,34.165 293.644,34.418 C293.21,34.598 292.598,34.778 291.624,34.887 L292.021,37.483 C293.246,37.41 294.869,37.338 296.924,37.267 L301.251,37.158 L301.251,38.204 L292.733,38.204 C292.18,38.204 291.733,38.652 291.733,39.204 L291.733,40.619 L301.251,40.619 L301.251,41.665 L289.091,41.665 C288.539,41.665 288.091,42.113 288.091,42.665 L288.091,44.442 L318.45,44.442 L318.45,42.665 C318.45,42.113 318.003,41.665 317.45,41.665 L317.45,41.665 Z M301.215,18.481 L291.903,18.481 C291.35,18.481 290.903,18.928 290.903,19.481 L290.903,20.788 L315.674,20.788 L315.674,19.481 C315.674,18.928 315.226,18.481 314.674,18.481 L305.398,18.481 L305.398,17.543 L317.368,17.543 L317.368,15.875 C317.368,15.323 316.921,14.875 316.368,14.875 L305.398,14.875 L305.398,13.181 L301.215,12 L301.215,14.875 L290.172,14.875 C289.62,14.875 289.172,15.323 289.172,15.875 L289.172,17.543 L301.215,17.543 L301.215,18.481 Z M211.947,19.207 L206.196,19.207 L206.196,18.208 C206.196,17.73 206.55,17.382 207.035,17.382 L211.947,17.382 L211.947,19.207 Z M211.947,23.581 L206.196,23.581 L206.196,22.548 C206.196,22.07 206.55,21.722 207.035,21.722 L211.947,21.722 L211.947,23.581 Z M213.959,14.868 L205.546,14.868 C204.09,14.868 203.028,15.913 203.028,17.347 L203.028,26.061 L211.947,26.061 L211.947,39.458 C211.947,41.145 211.466,41.352 209.571,41.524 L207.367,41.73 L208.366,44.727 L210.467,44.52 C214.049,44.142 215.15,43.487 215.15,40.009 L215.15,16.042 C215.15,15.429 214.58,14.868 213.959,14.868 L213.959,14.868 Z M224.896,17.761 L231.749,17.761 C231.025,18.794 230.026,19.827 228.821,20.826 L224.896,17.761 Z M230.833,23.892 L229.476,23.892 C231.955,21.997 233.85,19.965 235.33,17.761 L235.33,16.042 C235.33,15.429 234.76,14.868 234.138,14.868 L223.014,14.868 C222.529,14.868 222.175,15.217 222.175,15.695 L222.175,17.761 L224.207,17.761 L222.588,19.621 C223.414,20.275 224.93,21.55 226.272,22.617 C224.447,23.754 222.313,24.787 219.867,25.785 L221.21,28.575 C222.657,27.955 224,27.301 225.239,26.612 L228.787,26.612 L228.787,28.885 L223.07,28.885 L222.313,36.84 L228.305,36.84 C228.305,37.563 228.236,39.285 228.133,39.939 C228.029,41.352 227.582,41.593 225.895,41.73 L223.449,41.937 L224.345,44.727 L226.858,44.52 C230.026,44.245 231.129,43.591 231.301,40.731 C231.301,40.018 231.504,37.013 231.598,35.202 C231.631,34.576 231.05,33.981 230.407,33.981 L225.55,33.981 L225.895,31.743 L232.024,31.743 L232.024,25.065 C232.024,24.453 231.454,23.892 230.833,23.892 L230.833,23.892 Z M203.614,33.431 L199.929,33.431 L199.929,31.123 C199.929,30.645 200.283,30.297 200.768,30.297 L203.614,30.297 L203.614,33.431 Z M210.708,34.604 C210.708,33.992 210.138,33.431 209.516,33.431 L206.713,33.431 L206.713,31.123 C206.713,30.645 207.067,30.297 207.552,30.297 L209.571,30.297 L209.571,28.853 C209.571,28.241 209.001,27.68 208.38,27.68 L194.707,27.68 C194.221,27.68 193.868,28.028 193.868,28.506 L193.868,30.297 L196.829,30.297 L196.829,33.431 L193.605,33.431 C193.119,33.431 192.766,33.779 192.766,34.257 L192.766,36.151 L196.691,36.151 C196.313,38.527 195.417,39.975 192.662,41.73 L194.763,44.107 C197.693,41.853 199.118,40.021 199.685,36.837 C199.757,36.431 200.081,36.151 200.512,36.151 L203.614,36.151 L203.614,43.005 L206.713,43.005 L206.713,36.151 L210.708,36.151 L210.708,34.604 Z M197.312,19.207 L191.595,19.207 L191.595,18.243 C191.595,17.765 191.949,17.417 192.434,17.417 L197.312,17.417 L197.312,19.207 Z M197.312,23.581 L191.595,23.581 L191.595,22.582 C191.595,22.104 191.948,21.756 192.434,21.756 L197.312,21.756 L197.312,23.581 Z M200.549,16.008 C200.549,15.395 199.979,14.834 199.357,14.834 L190.875,14.834 C189.419,14.834 188.357,15.879 188.357,17.313 L188.357,44.692 L191.595,44.692 L191.595,26.887 C191.595,26.409 191.948,26.061 192.434,26.061 L200.549,26.061 L200.549,16.008 Z M283.351,30.642 L271.284,30.642 L271.284,19.379 C271.284,18.901 271.638,18.553 272.123,18.553 L282.891,18.553 L282.891,16.283 C282.891,15.671 282.321,15.109 281.699,15.109 L256.97,15.109 C256.485,15.109 256.131,15.458 256.131,15.936 L256.131,18.553 L267.771,18.553 L267.771,30.642 L255.248,30.642 C254.763,30.642 254.409,30.99 254.409,31.468 L254.409,34.085 L267.771,34.085 L267.771,44.417 L271.284,44.417 L271.284,34.911 C271.284,34.433 271.638,34.085 272.123,34.085 L284.543,34.085 L284.543,31.815 C284.543,31.203 283.973,30.642 283.351,30.642 L283.351,30.642 Z M259.851,19.759 L257.302,21.687 C258.68,23.513 261.366,27.404 262.847,29.711 L265.396,27.576 C263.914,25.372 261.331,21.79 259.851,19.759 L259.851,19.759 Z M276.175,29.643 C277.828,27.61 280.583,23.547 281.754,21.652 L279.067,19.724 C277.966,21.652 275.142,25.647 273.523,27.645 L276.175,29.643 Z M177.269,23.754 L169.83,23.754 L169.83,19.517 C169.83,19.039 170.184,18.69 170.669,18.69 L177.269,18.69 L177.269,23.754 Z M177.269,31.915 L169.83,31.915 L169.83,27.989 C169.83,27.512 170.184,27.163 170.669,27.163 L177.269,27.163 L177.269,31.915 Z M166.489,23.754 L159.119,23.754 L159.119,19.517 C159.119,19.039 159.473,18.69 159.958,18.69 L166.489,18.69 L166.489,23.754 Z M166.489,31.915 L159.085,31.915 C159.119,31.468 159.119,31.055 159.119,30.538 L159.119,27.989 C159.119,27.512 159.473,27.163 159.958,27.163 L166.489,27.163 L166.489,31.915 Z M179.452,15.281 L158.227,15.281 C156.771,15.281 155.71,16.327 155.71,17.76 L155.71,29.264 C155.71,37.15 154.952,38.976 152.06,43.693 L155.228,45.416 C157.225,41.937 158.396,39.147 158.844,35.325 L166.489,35.325 L166.489,44.142 L169.83,44.142 L169.83,36.152 C169.83,35.674 170.184,35.325 170.669,35.325 L177.269,35.325 L177.269,39.354 C177.269,40.87 177.131,41.008 175.203,41.18 L172.964,41.387 L173.997,44.934 L176.305,44.727 C179.611,44.451 180.644,43.693 180.644,40.491 L180.644,16.455 C180.644,15.843 180.074,15.281 179.452,15.281 L179.452,15.281 Z M249.278,19.518 L247.866,17.313 C246.799,18.036 244.284,19.414 242.494,20.31 C241.942,19.793 241.461,19.207 240.944,18.622 C242.563,17.727 244.767,16.418 246.075,15.694 L244.457,13.422 C243.458,14.145 241.22,15.385 239.463,16.384 C239.016,15.522 238.567,14.627 238.154,13.628 L235.192,14.18 C236.708,18.347 238.567,21.309 241.771,23.754 L235.411,23.754 C234.926,23.754 234.572,24.102 234.572,24.58 L234.572,26.268 C234.572,28.368 234.332,29.16 232.507,30.159 L234.332,32.432 C236.846,30.883 237.569,29.057 237.569,27.438 L237.569,26.612 L241.701,26.612 L241.701,28.575 C241.701,30.642 242.597,31.571 244.56,31.571 L248.555,31.571 L249.141,28.885 L246.213,28.885 C245.111,28.885 244.836,28.575 244.836,27.369 L244.836,25.682 C246.351,26.509 248.107,27.267 250.104,27.989 L251.379,25.131 C248.624,24.201 246.454,23.168 244.698,22.031 C246.316,21.205 248.176,20.172 249.278,19.518 L249.278,19.518 Z M247.143,35.015 L247.143,33.64 C247.143,33.028 246.573,32.467 245.951,32.467 L234.034,32.467 C233.549,32.467 233.195,32.815 233.195,33.293 L233.195,35.084 L234.538,35.084 L243.148,35.084 C242.08,36.221 241.288,37.15 240.358,37.942 C238.12,36.806 236.02,35.772 234.538,35.084 L233.299,37.529 C234.4,38.08 235.916,38.872 237.604,39.802 C236.226,40.491 234.538,41.11 232.059,41.903 L233.333,44.899 C236.26,43.969 238.74,42.833 240.771,41.489 C243.354,42.867 245.834,44.245 247.625,45.243 L249.209,42.316 C247.557,41.489 245.49,40.525 243.424,39.458 C244.904,38.114 246.075,36.634 247.143,35.015 L247.143,35.015 Z M129.468,18.794 L133.876,18.794 C132.946,21.652 131.5,24.305 129.813,26.475 L129.813,23.409 C130.398,22.204 130.983,20.895 131.5,19.483 L129.468,18.794 Z M124.854,26.405 L124.854,19.62 C124.854,19.142 125.207,18.794 125.693,18.794 L128.71,18.794 C127.953,21.205 126.334,24.305 124.854,26.405 L124.854,26.405 Z M135.185,31.847 C135.185,31.369 135.539,31.02 136.024,31.02 L139.283,31.02 L139.283,32.467 L135.185,32.467 L135.185,31.847 Z M135.185,28.231 C135.185,27.753 135.539,27.404 136.024,27.404 L139.283,27.404 L139.283,28.713 L135.185,28.713 L135.185,28.231 Z M135.185,24.545 C135.185,24.067 135.539,23.719 136.024,23.719 L139.283,23.719 L139.283,25.062 L135.185,25.062 L135.185,24.545 Z M132.43,27.576 L132.43,34.774 L136.287,34.774 L134.531,36.358 L138.043,40.25 L139.972,38.184 C139.214,37.426 137.562,35.669 136.666,34.774 L148.547,34.774 L148.547,33.64 C148.547,33.028 147.977,32.467 147.356,32.467 L142.039,32.467 L142.039,31.847 C142.039,31.369 142.392,31.02 142.878,31.02 L147.239,31.02 L147.239,29.887 C147.239,29.274 146.669,28.713 146.047,28.713 L142.039,28.713 L142.039,28.231 C142.039,27.753 142.392,27.404 142.878,27.404 L147.239,27.404 L147.239,26.236 C147.239,25.624 146.669,25.062 146.047,25.062 L142.039,25.062 L142.039,24.545 C142.039,24.067 142.392,23.719 142.878,23.719 L147.824,23.719 L147.824,22.551 C147.824,21.938 147.254,21.377 146.632,21.377 L142.658,21.377 L141.901,18.932 L139.008,19.414 C139.249,20.068 139.456,20.723 139.662,21.377 L135.805,21.377 L136.528,19.689 L134.187,18.794 L148.651,18.794 L148.651,17.006 C148.651,16.393 148.081,15.832 147.459,15.832 L137.389,15.832 L136.421,12.525 L133.188,14.11 C133.188,14.11 133.601,15.247 133.773,15.832 L124.237,15.832 C122.781,15.832 121.719,16.877 121.719,18.311 L121.719,27.748 C121.719,35.463 120.962,37.839 118,42.901 L120.858,44.899 C123.717,39.837 124.75,36.221 124.854,28.472 L125.749,30.056 C126.265,29.367 126.748,28.679 127.195,28.023 L127.195,35.394 L129.813,35.394 L129.813,28.265 L130.88,29.746 L132.43,27.576 Z M123.304,42.006 L125.921,43.831 C127.333,41.8 128.779,39.251 129.744,37.185 L127.092,35.704 C126.162,37.529 124.646,40.318 123.304,42.006 L123.304,42.006 Z M140.489,40.318 C140.316,41.283 140.248,41.387 138.973,41.489 C137.596,41.627 136.218,41.627 134.841,41.489 C133.842,41.387 133.532,41.248 133.532,40.181 L133.532,36.427 L130.364,36.289 L130.364,41.008 C130.364,43.384 131.431,44.142 133.808,44.313 C135.633,44.451 137.493,44.451 139.352,44.313 C142.142,44.142 142.968,43.659 143.347,41.387 C143.485,40.456 143.52,40.146 143.554,39.354 L140.764,38.355 C140.73,39.183 140.626,39.664 140.489,40.318 L140.489,40.318 Z M142.624,36.875 C143.691,38.493 145.62,41.489 146.653,43.177 L149.133,41.421 C148.1,39.664 146.137,36.875 144.966,35.325 L142.624,36.875 Z" id="Fill-1" fill="#63696B"></path>
            </g>
        </g>
    </g>
</svg>