<?xml version="1.0" encoding="UTF-8"?>
<svg width="248px" height="57px" viewBox="0 0 248 57" version="1.1" xmlns="http://www.w3.org/2000/svg" xmlns:xlink="http://www.w3.org/1999/xlink">
    <!-- Generator: Sketch 54.1 (76490) - https://sketchapp.com -->
    <title>轻量门户</title>
    <desc>Created with Sketch.</desc>
    <defs>
        <polygon id="path-1" points="7.23083035e-05 -0.0001 129.02 -0.0001 129.02 31.7536 7.23083035e-05 31.7536"></polygon>
    </defs>
    <g id="Page-1" stroke="none" stroke-width="1" fill="none" fill-rule="evenodd">
        <g id="画板复制" transform="translate(-31.000000, -19.000000)">
            <g id="轻量门户" transform="translate(31.000000, 19.000000)">
                <g id="编组" fill-rule="nonzero">
                    <g id="iuap应用平台logo复制">
                        <g id="XMLID_599_">
                            <g id="XMLID_600_">
                                <g id="XMLID_644_" transform="translate(66.000000, 0.000000)" fill="#717071">
                                    <path d="M3.1,5.3 C3.1,5.3 2,7.4 2,7.5 C1.9,7.7 2,7.9 2.2,7.9 L3.8,7.9 C3.8,7.9 7.5,0.6 7.6,0.5 C7.6,0.4 7.6,0.3 7.5,0.3 L6,0.3 C5.7,0.3 5.6,0.4 5.5,0.6 C5.5,0.7 4.3,2.9 4.3,2.9 C4.2,3.1 4,3.1 4,2.9 C4,2.9 3,0.8 3,0.7 C2.9,0.5 2.7,0.4 2.4,0.4 L1,0.4 C0.9,0.4 0.9,0.5 0.9,0.5 C0.9,0.5 3.1,5.3 3.1,5.3" id="XMLID_654_"></path>
                                    <path d="M8.1,4.6 C8.7,5.1 9.5,5.3 10.4,5.3 C11.4,5.3 12.2,5 12.7,4.5 C13.2,4 13.5,3.3 13.5,2.7 C13.5,1.9 13.2,1.3 12.7,0.9 C12.1,0.4 11.3,0.2 10.3,0.2 C9.3,0.2 8.5,0.5 8,1 C7.5,1.5 7.2,2.2 7.2,2.8 C7.3,3.5 7.6,4.2 8.1,4.6 M9.4,2.3 C9.9,1.4 10.5,1 11.2,1.3 C11.9,1.6 12,2.3 11.4,3.3 C10.9,4.2 10.3,4.6 9.6,4.3 C9,3.9 8.9,3.2 9.4,2.3" id="XMLID_651_"></path>
                                    <path d="M22.3,5.3 C22.3,5.3 21.2,7.4 21.2,7.5 C21.1,7.7 21.2,7.9 21.4,7.9 L23,7.9 C23,7.9 26.7,0.6 26.8,0.5 C26.8,0.4 26.8,0.3 26.7,0.3 L25.2,0.3 C24.9,0.3 24.8,0.4 24.7,0.6 C24.7,0.7 23.5,2.9 23.5,2.9 C23.4,3.1 23.2,3.1 23.2,2.9 C23.2,2.9 22.2,0.8 22.2,0.7 C22.1,0.5 21.9,0.4 21.6,0.4 L20.2,0.4 C20.1,0.4 20.1,0.5 20.1,0.5 C20.1,0.5 22.3,5.3 22.3,5.3" id="XMLID_650_"></path>
                                    <path d="M27.3,4.6 C27.9,5.1 28.7,5.3 29.7,5.3 C30.7,5.3 31.5,5 32,4.5 C32.5,4 32.8,3.3 32.8,2.7 C32.8,1.9 32.5,1.3 32,0.9 C31.4,0.4 30.6,0.2 29.6,0.2 C28.6,0.2 27.8,0.5 27.3,1 C26.8,1.5 26.5,2.2 26.5,2.8 C26.5,3.5 26.8,4.2 27.3,4.6 M28.6,2.3 C29.1,1.4 29.7,1 30.4,1.3 C31.1,1.6 31.2,2.3 30.6,3.3 C30.1,4.2 29.5,4.6 28.8,4.3 C28.2,3.9 28.1,3.2 28.6,2.3" id="XMLID_647_"></path>
                                    <path d="M14.1,5.2 L15.8,5.2 C16,5.2 16.1,5.1 16.1,4.9 L16.1,1.4 C17.3,1.1 18,1.4 18,1.9 L18,4.9 C18,5.1 18.1,5.2 18.3,5.2 L20,5.2 L20,2 C20,0.4 17.9,-0.4 14.4,0.6 C14.2,0.7 14.1,0.8 14.1,1.1 L14.1,5.2 L14.1,5.2 L14.1,5.2 Z" id="XMLID_646_"></path>
                                    <path d="M38.9,5 C39.1,4.9 39.2,4.8 39.2,4.5 L39.2,0.4 L39.2,0.4 L37.5,0.4 C37.3,0.4 37.2,0.5 37.2,0.7 L37.2,4.2 C36,4.5 35.3,4.2 35.3,3.7 L35.3,0.7 C35.3,0.5 35.2,0.4 35,0.4 L33.3,0.4 L33.3,3.6 C33.3,5.2 35.3,6 38.9,5" id="XMLID_645_"></path>
                                </g>
                                <g id="XMLID_601_" transform="translate(0.000000, 7.000000)">
                                    <g id="XMLID_634_" transform="translate(79.000000, 6.000000)">
                                        <g id="XMLID_640_" transform="translate(0.000000, 17.000000)">
                                            <path d="M26.2,0.7 L19.1,0.7 L19.1,1.5 C19.1,7.7 17,10.7 12.7,10.6 C11.4,10.6 9.6,10.2 7.4,9.5 L7.4,0.7 L0.1,0.7 L0.1,27 L1.1,27 L1.1,27 C1.2,27 1.3,27 1.4,27 L1.5,27 C2.4,27 3.8,26.9 4.8,26.4 C7,25.3 7.5,24.2 7.5,19.7 L7.5,15.6 C9.6,16.2 11.3,16.5 12.8,16.5 C22,16.6 26.5,11.6 26.3,1.4 L26.3,0.7 L26.2,0.7 L26.2,0.7 Z" id="XMLID_643_" fill="#D61519"></path>
                                            <path d="M12.7,10.6 C11.4,10.6 9.6,10.2 7.4,9.5 L7.4,4 C5.1,5.3 2.6,5.9 0.1,6.5 L0.1,15.6 C2.6,17.4 5.1,19.2 7.4,21.2 L7.4,15.7 C9.5,16.3 11.2,16.6 12.7,16.6 C16.5,16.7 19.5,15.8 21.7,14.1 C20.1,12.5 18.6,10.8 17,9.1 C15.9,10.2 14.5,10.7 12.7,10.6 Z" id="XMLID_642_" fill="#E60014"></path>
                                            <path d="M26.2,0.7 L19.1,0.7 L19.1,1.5 C19.1,2.6 19,3.7 18.9,4.6 C21.3,4.5 23.7,4.5 26.1,4.5 C26.2,3.6 26.2,2.6 26.2,1.5 L26.2,0.7 Z" id="XMLID_641_" fill="#E60014"></path>
                                        </g>
                                        <g id="XMLID_638_" fill="#0096FF">
                                            <path d="M14.5,0.8 C11.8,0.8 9.4,1.5 7.2,2.8 L7.2,2.6 L7.2,0.9 L5.7,0.9 C4.8,0.9 3.7,1.1 2.8,1.5 C0.7,2.6 0.2,3.6 0.1,7.8 L0.1,9.6 L0.1,10.6 L0.1,17 L7.4,17 L7.4,9.4 C9.6,8.1 11.8,7.4 13.8,7.4 C16.6,7.3 18.3,8.9 18.9,12.4 L24.4,6.2 C22.5,2.7 19.2,0.9 14.5,0.8 Z" id="XMLID_639_"></path>
                                        </g>
                                        <g id="XMLID_636_" transform="translate(18.000000, 6.000000)" fill="#69CD00">
                                            <path d="M6.3,0.2 L0.8,6.4 C1,7.3 1,8.4 1,9.6 L1,11 L8.1,11 L8.1,9.6 C8.2,5.7 7.6,2.6 6.3,0.2 Z" id="XMLID_637_"></path>
                                        </g>
                                        <path d="M5.6,0.9 C4.7,0.9 3.6,1.1 2.7,1.5 C0.6,2.6 0.1,3.6 0,7.8 L0,10.6 L7.1,2.6 L7.1,0.9 L5.6,0.9 L5.6,0.9 Z" id="XMLID_635_" fill="#FFB400"></path>
                                    </g>
                                    <path d="M64.9,7.3 L64.9,7.3 C64.6,7.2 64.4,7.2 64.1,7.1 L63.2,6.9 C62.9,6.9 61.3,6.7 61.2,6.7 C61,6.7 59.6,6.7 59.3,6.7 L59.3,6.7 C57.5,6.7 55.8,6.8 54.3,6.9 C53.3,7.1 52,7.3 51.2,7.6 C49.7,8.3 48.7,9.5 48.6,14 L48.6,14 C49,13.9 49.9,13.8 50,13.8 C50.7,13.7 51.4,13.6 52,13.5 C52.6,13.4 53.3,13.4 53.9,13.3 C55.6,13.2 57.2,13.1 58.8,13.1 C59.1,13.1 60.2,13.1 60.2,13.1 C60.6,13.1 61,13.2 61.4,13.3 L61.4,13.3 C63.7,13.8 64.8,15.5 64.6,18.3 L64.6,19.2 L61.5,19.2 C55.1,18.9 50.8,20.2 48.6,23 L72,23 L72,18.3 C72.3,12.3 70,8.6 64.9,7.3 Z" id="XMLID_633_" fill="#FFB400"></path>
                                    <g id="XMLID_631_" transform="translate(0.000000, 23.000000)" fill="#D61519">
                                        <path d="M0.5,0.7 L0.5,16.7 C0.5,16.7 3.2,17 4.9,16.1 C7.2,15 7.6,13.8 7.6,9 L7.6,0.7 L0.5,0.7 L0.5,0.7 Z" id="XMLID_632_"></path>
                                    </g>
                                    <path d="M3.4,1.5 C1.4,2.5 0.6,4.3 0.6,9.3 C0.6,9.3 1.6,8.3 3.2,7.7 C4.3,7.3 5.2,6.7 5.8,6.3 C7.5,5 7.8,3.5 7.8,0.8 C7.6,0.8 4.9,0.6 3.4,1.5 Z" id="XMLID_630_" fill="#69CD00"></path>
                                    <path d="M59.3,6.8 C57.5,6.8 55.8,6.9 54.3,7 C53.3,7.2 52,7.4 51.2,7.7 C49.7,8.4 48.7,9.6 48.6,14.1 C52.3,13.5 55.7,13.2 58.8,13.2 C59.8,13.1 60.7,13.2 61.4,13.3 L66.3,7.7 C64.6,7 62.2,6.7 59.3,6.8 Z" id="XMLID_629_" fill="#69CD00"></path>
                                    <path d="M20.9,6.8 L20.9,6.8 C20.8,6.8 20.7,6.8 20.6,6.8 L20.5,6.8 C19.6,6.8 18.2,6.9 17.3,7.4 C15,8.5 14.6,9.7 14.6,14.5 L14.6,15.2 L14.6,15.2 L14.6,20.3 L21.7,12.3 L21.7,6.8 L20.9,6.8 L20.9,6.8 Z" id="XMLID_628_" fill="#FFB400"></path>
                                    <polygon id="XMLID_627_" fill="#FFFFFF" points="98.2 23 105.3 23 105.3 23.7 98.2 23.7"></polygon>
                                    <polygon id="XMLID_626_" fill="#FFFFFF" points="79.1 23 86.4 23 86.4 23.7 79.1 23.7"></polygon>
                                    <g id="XMLID_624_" transform="translate(48.000000, 19.000000)" fill="#69CD00">
                                        <path d="M4.9,4 L8.1,0.4 C4.6,0.9 2.1,2.1 0.6,4 L4.9,4 Z" id="XMLID_625_"></path>
                                    </g>
                                    <polygon id="XMLID_623_" fill="#FFFFFF" points="33.4 23 40.7 23 40.7 23.7 33.4 23.7"></polygon>
                                    <g id="XMLID_621_" transform="translate(33.000000, 11.000000)" fill="#69CD00">
                                        <polygon id="XMLID_622_" points="7.7 12 7.7 0.5 0.4 5.6 0.4 12"></polygon>
                                    </g>
                                    <polygon id="XMLID_620_" fill="#FFFFFF" points="14.5 23 21.6 23 21.6 23.7 14.5 23.7"></polygon>
                                    <path d="M0.5,23.7 L0.5,29.4 C2.9,29.6 5.2,29.7 7.6,29.6 L7.6,23.7 L0.5,23.7 L0.5,23.7 Z" id="XMLID_619_" fill="#E60014"></path>
                                    <polygon id="XMLID_618_" fill="#FFFFFF" points="0.5 23 7.6 23 7.6 23.7 0.5 23.7"></polygon>
                                    <g id="XMLID_612_" transform="translate(46.000000, 23.000000)">
                                        <path d="M0.7,6.4 L0.7,7.5 C0.9,13.6 4.1,16.6 10.9,16.6 C13.6,16.6 16.2,16 18.9,14.8 L18.9,16.6 L26,16.6 L26,0.6 L2.2,0.6 C1.2,2.2 0.7,4.1 0.7,6.4 Z M15.5,2.2 L18.6,2.2 L18.6,9.1 C16.8,10.3 14.5,10.9 11.7,10.9 C9.2,10.9 8,9.9 7.8,8 L7.8,6.5 C7.8,3.4 10.2,2.1 15.5,2.2 Z" id="XMLID_615_" fill="#D61519"></path>
                                        <path d="M8.1,9 C5.9,6.7 3.5,4.7 1.2,2.8 C0.9,3.9 0.7,5.1 0.7,6.4 L0.7,7.5 C0.9,13.6 4.1,16.6 10.9,16.6 C11.9,16.6 13,16.5 14,16.3 C12.6,14.2 11.1,12.2 9.4,10.4 C8.8,10.1 8.4,9.7 8.1,9 Z" id="XMLID_614_" fill="#E60014"></path>
                                        <path d="M23.8,0.7 C22.1,5.5 20.3,10.4 18.3,15.1 C18.5,15 18.7,14.9 18.9,14.8 L18.9,16.6 L20.4,16.6 C21.3,16.6 22.4,16.4 23.3,16 C25.4,15 25.9,13.9 26,10.1 L26,0.6 L23.8,0.6 L23.8,0.7 Z" id="XMLID_613_" fill="#E60014"></path>
                                    </g>
                                    <path d="M7.6,23 L7.6,8.2 L7.6,6.6 C7.6,6.6 6.9,7.6 5.5,8.4 C4.5,9 3.7,9.3 2.7,9.8 C1,10.7 0.6,11.5 0.6,12.8 L0.6,13.2 L0.6,15.3 L0.6,15.7 L0.6,22.9 L7.6,22.9 L7.6,23 L7.6,23 Z" id="XMLID_611_" fill="#FFB400"></path>
                                    <g id="XMLID_609_" transform="translate(14.000000, 10.000000)" fill="#69CD00">
                                        <polygon id="XMLID_610_" points="7.6 13 7.6 0.7 0.5 6.8 0.5 13"></polygon>
                                    </g>
                                    <path d="M38.9,6.8 C38,6.8 36.9,7 36.1,7.4 C33.8,8.5 33.4,9.7 33.4,14.5 L33.4,15.2 L33.4,15.2 L33.4,22.1 L40.7,13.8 L40.7,6.8 L38.9,6.8 L38.9,6.8 Z" id="XMLID_608_" fill="#0096FF"></path>
                                    <path d="M20.9,6.8 L20.9,6.8 C20.8,6.8 20.7,6.8 20.6,6.8 L20.5,6.8 C19.6,6.8 18.2,6.9 17.3,7.4 C15,8.5 14.6,9.7 14.6,14.5 L14.6,15.2 L14.6,15.2 L14.6,20.3 L21.7,12.3 L21.7,6.8 L20.9,6.8 L20.9,6.8 Z" id="XMLID_607_" fill="#FFB400"></path>
                                    <g id="XMLID_603_" transform="translate(14.000000, 23.000000)">
                                        <path d="M19.4,0.7 L19.4,8 C16.7,9.6 14.2,10.4 11.9,10.4 C9.1,10.4 7.7,8.4 7.7,4.4 L7.7,0.7 L0.6,0.7 L0.6,4.4 C0.5,12.7 3.9,16.7 10.8,16.6 C13.9,16.6 16.8,15.9 19.5,14.6 L19.5,16.6 L20.5,16.6 L20.5,16.6 C21.4,16.6 23,16.6 24.2,16 C26.5,14.9 26.9,13.7 26.9,8.9 L26.9,8.2 L26.9,8.2 L26.9,0.6 L19.4,0.6 L19.4,0.7 L19.4,0.7 Z" id="XMLID_606_" fill="#D61519"></path>
                                        <path d="M0.5,0.7 L0.5,4.4 C0.5,4.9 0.5,5.4 0.5,5.9 C2.9,5.5 5.3,4.9 7.6,4.2 L7.6,0.7 L0.5,0.7 Z" id="XMLID_605_" fill="#E60014"></path>
                                        <path d="M19.4,0.7 L19.4,8 C16.7,9.6 14.2,10.4 11.9,10.4 C10.6,10.4 9.7,10 9,9.2 C7.6,11.2 6,13.1 4.5,15 C6.1,16.2 8.2,16.7 10.9,16.6 C12.6,16.6 14.2,16.4 15.8,16 C18.7,12 22.4,8.4 26.2,5.4 C26.4,5.3 26.6,5.2 26.9,5.1 L26.9,0.6 L19.4,0.6 L19.4,0.7 L19.4,0.7 Z" id="XMLID_604_" fill="#E60014"></path>
                                    </g>
                                    <path d="M72,23 L48.7,23 C48.5,23.2 48.4,23.5 48.2,23.7 L72,23.7 L72,23 Z" id="XMLID_602_" fill="#FFFFFF"></path>
                                </g>
                            </g>
                        </g>
                    </g>
                </g>
                <g id="编组" transform="translate(118.000000, 13.000000)">
                    <mask id="mask-2" fill="white">
                        <use xlink:href="#path-1"></use>
                    </mask>
                    <g id="Clip-2"></g>
                    <path d="M62.6755,11.1836 L34.7025,11.1836 C34.2175,11.1836 33.8635,11.5316 33.8635,12.0096 L33.8635,13.3576 L63.8675,13.3576 L63.8675,12.3576 C63.8675,11.7446 63.2975,11.1836 62.6755,11.1836 L62.6755,11.1836 Z M69.1195,7.2466 L69.1195,30.9256 L72.5325,30.9256 L72.5325,6.5236 L69.9995,6.4216 C69.4955,6.4006 69.1195,6.7536 69.1195,7.2466 L69.1195,7.2466 Z M69.1895,2.9166 C70.5705,3.7256 73.6365,5.5786 74.8835,6.4546 L76.4665,3.4556 L71.6865,0.5936 L69.1895,2.9166 Z M125.5725,14.7046 L108.0965,14.7046 L108.0965,13.1856 L108.0965,8.4546 C108.0965,7.9766 108.4505,7.6276 108.9355,7.6276 L125.5725,7.6276 L125.5725,14.7046 Z M127.8285,4.4176 L119.2585,4.4176 C118.7455,2.7956 117.7695,0.2416 117.7695,0.2416 L114.5685,2.5206 C114.5685,2.5206 114.8205,3.2096 115.1955,4.4176 L107.1665,4.4176 C105.7105,4.4176 104.6485,5.4636 104.6485,6.8966 L104.6485,13.9446 C104.6485,22.4356 103.4875,25.1626 100.2115,29.8566 L103.4195,31.7536 C106.1845,27.4056 107.5165,24.3686 107.9595,18.0176 L129.0205,18.0176 L129.0205,5.5916 C129.0205,4.9796 128.4505,4.4176 127.8285,4.4176 L127.8285,4.4176 Z M94.5865,2.3126 L79.1065,2.3126 C78.6205,2.3126 78.2675,2.6606 78.2675,3.1386 L78.2675,5.5916 L92.2625,5.5916 L92.2625,25.1966 C92.2625,27.2676 91.9545,27.5786 89.8045,27.6816 L87.2445,27.8196 L88.3025,31.5126 L91.2725,31.3396 C95.0615,31.1676 95.7775,30.3736 95.7775,26.3706 L95.7775,3.4866 C95.7775,2.8736 95.2075,2.3126 94.5865,2.3126 L94.5865,2.3126 Z M47.2435,18.1206 L40.6225,18.1206 L40.6165,17.6036 C40.6105,17.1156 40.9725,16.7606 41.4685,16.7666 L47.2435,16.8436 L47.2435,18.1206 Z M47.2435,21.4686 L40.6225,21.4686 L40.6225,20.9836 C40.6225,20.5056 40.9755,20.1576 41.4615,20.1576 L47.2435,20.1576 L47.2435,21.4686 Z M50.5205,20.9836 C50.5205,20.5056 50.8745,20.1576 51.3595,20.1576 L57.1085,20.1576 L57.1085,21.4686 L50.5205,21.4686 L50.5205,20.9836 Z M50.5135,17.5946 C50.5075,17.1046 50.8705,16.7476 51.3685,16.7556 L57.1085,16.8436 L57.1085,18.1206 L50.5205,18.1206 L50.5135,17.5946 Z M50.5205,28.0586 C50.5205,27.5806 50.8745,27.2326 51.3595,27.2326 L60.8975,27.2326 L60.8975,25.0926 L50.5205,25.0926 L50.5205,24.4006 C50.5205,23.9226 50.8745,23.5746 51.3595,23.5746 L60.4875,23.5746 L60.4875,15.9116 C60.4875,15.2996 59.9175,14.7386 59.2965,14.7386 L38.0815,14.7386 C37.5965,14.7386 37.2425,15.0866 37.2425,15.5646 L37.2425,23.5746 L47.2435,23.5746 L47.2435,25.0926 L36.8335,25.0926 L36.8335,27.2326 L47.2435,27.2326 L47.2435,28.7166 L34.5805,28.7166 L34.5805,30.8916 L63.1505,30.8916 L63.1505,28.7166 L50.5205,28.7166 L50.5205,28.0586 Z M28.7165,26.7846 L22.8425,26.7846 L22.8425,21.8806 C22.8425,21.4026 23.1965,21.0546 23.6815,21.0546 L28.1335,21.0546 L28.1335,18.8806 C28.1335,18.2686 27.5635,17.7066 26.9415,17.7066 L14.8065,17.7066 C14.3215,17.7066 13.9675,18.0556 13.9675,18.5336 L13.9675,21.0546 L19.4975,21.0546 L19.4975,26.7846 L12.9295,26.7846 C12.4445,26.7846 12.0905,27.1326 12.0905,27.6106 L12.0905,30.0636 L29.9085,30.0636 L29.9085,27.9576 C29.9085,27.3456 29.3385,26.7846 28.7165,26.7846 L28.7165,26.7846 Z M13.4825,22.2706 C13.4355,21.6196 12.7725,21.0736 12.1445,21.1786 C11.3485,21.3116 10.5415,21.4246 9.7345,21.5376 L9.7345,17.8446 L12.6705,17.8446 L12.6705,15.7046 C12.6705,15.0926 12.1005,14.5316 11.4785,14.5316 L9.7345,14.5316 L9.7345,10.0816 C9.7345,9.4916 9.2045,8.9436 8.6015,8.9096 L6.7305,8.8016 L6.7305,14.5316 L4.4785,14.5316 C5.1955,12.9096 5.9465,10.3896 6.7305,7.6626 L13.2845,7.6626 L13.2845,5.5576 C13.2845,4.9456 12.7145,4.3836 12.0925,4.3836 L7.5505,4.3836 C7.9255,3.0376 8.1645,1.7946 8.4385,0.5866 L5.5025,-0.0004 C5.1955,1.3466 4.8545,2.7616 4.4105,4.3836 L1.6315,4.3836 C1.1455,4.3836 0.7925,4.7326 0.7925,5.2106 L0.7925,7.6626 L3.4885,7.6626 C2.7035,10.3896 1.8505,12.9096 1.0645,14.5316 L1.0645,17.8446 L6.4585,17.8446 L6.4585,22.0216 C4.5505,22.2926 2.6425,22.4846 0.7355,22.6896 C0.2565,22.7416 -0.0525,23.1406 0.0075,23.6306 L0.3145,26.1626 C2.3965,25.9206 4.4105,25.6456 6.4585,25.3696 L6.4585,31.4786 L9.7345,31.4786 L9.7345,24.8856 L13.6265,24.2646 L13.4825,22.2706 Z M27.7235,5.2816 L27.7235,3.3486 C27.7235,2.7366 27.1535,2.1746 26.5315,2.1746 L14.9435,2.1746 C14.4575,2.1746 14.1045,2.5236 14.1045,3.0016 L14.1045,5.4546 L23.3205,5.4546 C20.8625,8.5946 17.1765,11.5286 12.6365,13.8746 L14.4455,16.9126 C17.1765,15.3946 19.4625,13.8066 21.5115,12.0456 C24.2075,13.5996 26.8015,15.2896 29.2595,17.0506 L30.6935,13.8746 C28.4745,12.3916 26.2555,11.1146 23.9345,9.7686 C25.3345,8.2846 26.5975,6.8336 27.7235,5.2816 L27.7235,5.2816 Z M57.1085,4.6606 L40.6555,4.6606 L40.6485,4.1526 C40.6415,3.6656 41.0005,3.3096 41.4945,3.3126 L57.1085,3.4166 L57.1085,4.6606 Z M57.1085,7.7666 L40.6555,7.7666 L40.6555,7.2806 C40.6555,6.8026 41.0095,6.4546 41.4945,6.4546 L57.1085,6.4546 L57.1085,7.7666 Z M60.4875,2.5546 C60.4875,1.9426 59.9175,1.3806 59.2965,1.3806 L38.0815,1.3806 C37.5965,1.3806 37.2425,1.7296 37.2425,2.2076 L37.2425,9.7336 L60.4875,9.7336 L60.4875,2.5546 Z" id="Fill-1" fill="#63696B" mask="url(#mask-2)"></path>
                </g>
            </g>
        </g>
    </g>
</svg>