<?xml version="1.0" encoding="UTF-8"?>
<svg width="237px" height="30px" viewBox="0 0 237 30" version="1.1" xmlns="http://www.w3.org/2000/svg" xmlns:xlink="http://www.w3.org/1999/xlink">
    <!-- Generator: Sketch 52.5 (67469) - http://www.bohemiancoding.com/sketch -->
    <title>logo</title>
    <desc>Created with Sketch.</desc>
    <g id="Page-1" stroke="none" stroke-width="1" fill="none" fill-rule="evenodd">
        <g id="logo">
            <g id="XMLID_233_" transform="translate(60.878049, 6.243902)" fill="#F93406">
                <path d="M43.3505226,10.8227642 L43.3505226,8.11707317 C43.3505226,3.19132791 40.9421603,0.693766938 36.0585366,0.693766938 L33.1818815,0.693766938 L33.0480836,0.693766938 C30.7735192,0.693766938 30.8404181,2.49756098 30.8404181,2.49756098 L30.8404181,2.70569106 L30.8404181,18.0379404 L36.0585366,18.0379404 C41.0759582,18.1073171 43.4843206,15.6791328 43.3505226,10.8227642 Z M35.8578397,15.4710027 L33.91777,15.4710027 L33.91777,3.53821138 L35.8578397,3.53821138 C39.0020906,3.39945799 40.5407666,4.92574526 40.6745645,8.11707317 L40.6745645,10.8227642 C40.6076655,13.9447154 39.0020906,15.6097561 35.8578397,15.4710027 Z" id="XMLID_262_" fill-rule="nonzero"></path>
                <path d="M9.63344948,15.401626 C8.5630662,15.4710027 7.8271777,15.5403794 7.29198606,15.5403794 C4.74982578,15.6791328 3.5456446,14.0834688 3.61254355,10.6840108 L3.61254355,8.11707317 C3.47874564,4.85636856 4.74982578,3.26070461 7.29198606,3.46883469 C8.49616725,3.46883469 9.9010453,3.53821138 11.4397213,3.74634146 L11.4397213,3.12195122 C11.4397213,0.832520325 9.56655052,0.971273713 9.56655052,0.971273713 L9.56655052,0.901897019 C8.5630662,0.763143631 7.8271777,0.693766938 7.22508711,0.693766938 C2.74285714,0.485636856 0.535191638,2.98319783 0.668989547,8.11707317 L0.668989547,10.6840108 C0.535191638,15.7485095 2.74285714,18.1766938 7.22508711,18.0379404 C8.62996516,18.0379404 10.0348432,17.899187 11.3728223,17.6216802 L11.3728223,17.2747967 C11.3059233,15.3322493 9.63344948,15.401626 9.63344948,15.401626 Z" id="XMLID_261_"></path>
                <g id="XMLID_258_" transform="translate(44.822300, 0.693767)">
                    <path d="M7.42578397,12.695935 L3.41184669,0 L2.20766551,0 C-0.0668989547,0 -1.90137077e-14,2.01192412 -1.90137077e-14,2.01192412 L-1.90137077e-14,17.3441734 L0.668989547,17.3441734 C2.94355401,17.3441734 2.8097561,15.3322493 2.8097561,15.3322493 L2.8097561,6.86829268 L6.08780488,16.9279133 L7.42578397,12.695935 Z" id="XMLID_260_"></path>
                    <path d="M12.3763066,0 L7.02439024,17.4135501 L9.49965157,17.4135501 L12.8445993,6.93766938 L12.8445993,17.3441734 L13.5804878,17.3441734 C15.5205575,17.3441734 15.7212544,15.8872629 15.7212544,15.4710027 L15.7212544,0 L12.3763066,0 Z" id="XMLID_259_"></path>
                </g>
                <g id="XMLID_255_" transform="translate(13.379791, 0.693767)">
                    <path d="M7.8271777,12.6265583 L3.81324042,0 L2.60905923,0 C0.334494774,0 0.401393728,2.01192412 0.401393728,2.01192412 L0.401393728,17.3441734 L1.07038328,17.3441734 C3.34494774,17.3441734 3.21114983,15.3322493 3.21114983,15.3322493 L3.21114983,6.86829268 L6.42229965,16.8585366 L7.8271777,12.6265583 Z" id="XMLID_257_"></path>
                    <path d="M12.7108014,0 L7.35888502,17.4135501 L9.9010453,17.4135501 L13.245993,6.93766938 L13.245993,17.3441734 L13.9818815,17.3441734 C15.9219512,17.3441734 16.1226481,15.8872629 16.1226481,15.4710027 L16.1226481,0 L12.7108014,0 Z" id="XMLID_256_"></path>
                </g>
            </g>
            <g id="XMLID_113_" transform="translate(130.341463, 7.024390)" fill="#1F3853" fill-rule="nonzero">
                <path d="M0.403087373,17.1707317 L3.29188021,7.21170732 L0.201543686,7.21170732 L0.201543686,5.90673171 L16.459401,5.90673171 L16.459401,7.21170732 L6.51657919,7.21170732 L4.09805496,15.8657561 L12.5628898,15.8657561 L10.6146341,8.92878049 L13.9736956,8.92878049 L16.2578574,17.1707317 L0.403087373,17.1707317 Z M1.07489966,2.19785366 L1.07489966,0.892878049 L15.5188638,0.892878049 L15.5188638,2.19785366 L1.07489966,2.19785366 Z" id="XMLID_227_"></path>
                <path d="M34.1952454,15.8657561 L34.1952454,17.1707317 L18.0045693,17.1707317 L18.0045693,15.8657561 L24.4539673,15.8657561 L24.4539673,8.99746341 L18.6763816,8.99746341 L18.6763816,7.6924878 L24.4539673,7.6924878 L24.4539673,3.36546341 L18.3404755,3.36546341 L18.3404755,2.0604878 L33.8593393,2.0604878 L33.8593393,3.36546341 L28.0145724,3.36546341 L28.0145724,7.6924878 L33.6577956,7.6924878 L33.6577956,8.99746341 L28.0145724,8.99746341 L28.0145724,15.8657561 C28.0145724,15.8657561 34.1952454,15.8657561 34.1952454,15.8657561 Z M24.4539673,1.64839024 L24.4539673,1.57970732 L27.8802099,0 L27.8802099,1.64839024 L24.4539673,1.64839024 Z" id="XMLID_198_"></path>
                <path d="M36.1435011,4.46439024 L36.1435011,3.15941463 L36.6809509,3.15941463 L36.2778635,1.0302439 L38.2933004,1.0302439 L38.6963878,3.15941463 L38.8979315,3.15941463 L38.8979315,0.686829268 L41.5851806,0.412097561 L41.5851806,3.22809756 L41.7195431,3.22809756 L42.1898117,1.09892683 L44.1380673,1.09892683 L43.7349799,3.22809756 L44.2052485,3.22809756 L44.2052485,4.53307317 L41.5179994,4.53307317 L41.5179994,8.24195122 L38.8307502,8.24195122 L38.8307502,4.53307317 L36.1435011,4.53307317 L36.1435011,4.46439024 Z M38.0917567,8.17326829 L36.1435011,8.17326829 L36.8153134,4.80780488 L38.763569,4.80780488 L38.0917567,8.17326829 Z M36.1435011,10.2337561 L36.1435011,8.92878049 L37.8230318,8.92878049 L37.9573943,8.448 L40.4430997,8.448 L40.241556,8.92878049 L44.6083359,8.92878049 L42.7272615,12.5002927 L44.2052485,17.0333659 L41.5179994,17.0333659 L40.5774622,14.4234146 L38.9651127,17.0333659 L36.1435011,17.0333659 L38.4276629,13.118439 L36.4794072,13.118439 L37.285582,10.2337561 C37.285582,10.2337561 36.1435011,10.2337561 36.1435011,10.2337561 Z M39.9056499,10.2337561 L39.2338376,12.4316098 L40.241556,12.4316098 L41.4508182,10.2337561 L39.9056499,10.2337561 Z M41.6523618,4.80780488 L43.6677987,4.80780488 L44.2724298,8.17326829 L42.3241741,8.17326829 L41.6523618,4.80780488 Z M52.3341772,2.95336585 L51.6623649,2.95336585 L50.3187404,8.92878049 L52.266996,17.1020488 L49.7141093,17.1020488 L48.3033035,11.4013659 L46.8924977,17.1020488 L44.4067922,17.1020488 L46.3550479,8.92878049 L45.5488731,5.15121951 L44.2724298,5.15121951 L45.2801482,0.549463415 L47.6986724,0.549463415 L47.4299475,1.64839024 L52.4013584,1.64839024 L52.3341772,2.95336585 Z M48.3033035,6.93697561 L49.2438407,3.02204878 L47.4299475,3.02204878 L48.3033035,6.93697561 Z" id="XMLID_145_"></path>
                <path d="M55.4245137,15.3162927 L55.4245137,11.4700488 L53.8121642,11.8821463 L53.8121642,10.371122 L55.4245137,9.95902439 L55.4245137,4.18965854 L53.8121642,4.18965854 L53.8121642,2.95336585 L55.4245137,2.95336585 L55.4245137,0.755512195 L58.1117629,0.343414634 L58.1117629,2.95336585 L59.2538438,2.95336585 L59.2538438,4.18965854 L58.1117629,4.18965854 L58.1117629,9.27219512 L59.1194813,8.99746341 L59.1194813,10.5084878 L58.1117629,10.7832195 L58.1117629,17.1707317 L54.5511578,17.1707317 L55.4245137,15.3162927 Z M61.4708243,17.1020488 L59.0523001,17.1020488 L59.6569312,0.755512195 L69.8684779,0.755512195 L69.8684779,5.01385366 L61.8739117,5.01385366 L61.4708243,17.1020488 Z M62.0082742,2.0604878 L61.9410929,3.77756098 L67.5843161,3.77756098 L67.5843161,2.0604878 L62.0082742,2.0604878 Z M64.897067,9.95902439 L64.897067,7.82985366 L62.0754554,7.82985366 L62.0754554,6.52487805 L64.897067,6.52487805 L64.897067,5.83804878 L67.24841,5.49463415 L67.24841,6.59356098 L70.0700216,6.59356098 L70.0700216,7.89853659 L67.24841,7.89853659 L67.24841,10.0277073 L69.7341155,10.0277073 L69.7341155,17.1707317 L62.2098178,17.1707317 L62.2098178,9.95902439 L64.897067,9.95902439 Z M67.3155912,11.264 L64.9642482,11.264 L64.9642482,15.8657561 L67.3155912,15.8657561 L67.3155912,11.264 Z" id="XMLID_139_"></path>
                <path d="M88.2089534,1.0302439 L88.2089534,2.19785366 L87.0668725,2.19785366 L88.2089534,4.18965854 L85.2529793,4.18965854 L84.1780797,2.19785366 L84.0437172,2.19785366 L82.9688175,4.18965854 L81.356468,4.18965854 L81.356468,4.8764878 L88.2089534,4.8764878 L88.2089534,6.93697561 L85.0514356,6.93697561 L85.0514356,6.18146341 L74.9742513,6.18146341 L74.9742513,6.93697561 L71.8839148,6.93697561 L71.8839148,4.8764878 L79.2066687,4.8764878 L81.1549244,4.18965854 L79.9456622,4.18965854 L81.8267366,0.686829268 L84.7827107,0.686829268 L84.6483483,1.0302439 L88.2089534,1.0302439 Z M80.0800247,1.0302439 L80.0800247,2.19785366 L78.8707626,2.19785366 L80.0128435,4.18965854 L77.0568694,4.18965854 L75.9819697,2.19785366 L75.9147885,2.19785366 L74.8398889,4.18965854 L71.8839148,4.18965854 L73.7649892,0.686829268 L76.7209633,0.686829268 L76.5866008,1.0302439 L80.0800247,1.0302439 Z M87.2012349,11.0579512 L76.3178759,11.0579512 L76.3178759,12.0881951 L87.4699599,12.0881951 L87.4699599,17.1707317 L73.0259957,17.1707317 L73.0259957,7.34907317 L87.2012349,7.34907317 L87.2012349,11.0579512 Z M76.3178759,8.51668293 L76.3178759,9.75297561 L83.976536,9.75297561 L83.976536,8.51668293 L76.3178759,8.51668293 Z M84.1780797,13.2558049 L76.2506947,13.2558049 L76.2506947,16.003122 L84.1780797,16.003122 L84.1780797,13.2558049 Z" id="XMLID_131_"></path>
                <path d="M89.6197592,15.7970732 L91.2321087,15.5910244 L91.2321087,8.24195122 L89.6197592,8.24195122 L89.6197592,6.93697561 L91.2321087,6.93697561 L91.2321087,2.12917073 L89.6197592,2.12917073 L89.6197592,0.892878049 L95.5988885,0.892878049 L95.5988885,2.12917073 L94.0537203,2.12917073 L94.0537203,6.93697561 L95.5988885,6.93697561 L95.5988885,8.24195122 L94.0537203,8.24195122 L94.0537203,15.3162927 L95.5988885,15.1102439 L95.5988885,16.3465366 L89.6197592,17.1020488 L89.6197592,15.7970732 Z M95.9347947,15.7970732 L99.4953998,15.7970732 L99.4953998,12.5689756 L96.0691571,12.5689756 L96.0691571,11.1953171 L99.4953998,11.1953171 L99.4953998,9.34087805 L96.0691571,9.34087805 L96.0691571,0.755512195 L105.676073,0.755512195 L105.676073,9.34087805 L102.24983,9.34087805 L102.24983,11.1953171 L105.676073,11.1953171 L105.676073,12.5689756 L102.24983,12.5689756 L102.24983,15.7970732 L105.877617,15.7970732 L105.877617,17.1707317 L95.9347947,17.1707317 L95.9347947,15.7970732 Z M98.4876814,2.12917073 L98.4876814,4.18965854 L99.562581,4.18965854 L99.562581,2.12917073 L98.4876814,2.12917073 Z M98.4876814,7.96721951 L99.562581,7.96721951 L99.562581,5.49463415 L98.4876814,5.49463415 L98.4876814,7.96721951 Z M102.24983,2.12917073 L102.24983,4.18965854 L103.32473,4.18965854 L103.32473,2.12917073 L102.24983,2.12917073 Z M102.24983,5.49463415 L102.24983,7.96721951 L103.32473,7.96721951 L103.32473,5.49463415 L102.24983,5.49463415 Z" id="XMLID_114_"></path>
            </g>
            <g id="XMLID_370_">
                <g id="XMLID_371_">
                    <g id="XMLID_415_" transform="translate(34.529533, 0.000000)" fill="#717071">
                        <path d="M1.69262416,3.11879773 C1.69262416,3.11879773 1.15098443,4.20359695 1.08327946,4.2713969 C1.01557449,4.4069968 1.08327946,4.47479675 1.21868939,4.47479675 L2.03114899,4.47479675 L3.99459301,0.677999507 C3.99459301,0.610199557 3.99459301,0.610199557 3.92688804,0.610199557 L3.18213341,0.610199557 C3.04672348,0.610199557 2.97901851,0.677999507 2.91131355,0.745799458 C2.91131355,0.813599409 2.30196885,1.89839862 2.30196885,1.89839862 C2.23426388,1.96619857 2.16655892,1.96619857 2.09885395,1.89839862 C2.09885395,1.89839862 1.55721422,0.813599409 1.55721422,0.745799458 C1.48950926,0.610199557 1.42180429,0.542399606 1.28639436,0.542399606 L0.54163973,0.542399606 C0.473934763,0.542399606 0.473934763,0.542399606 0.473934763,0.610199557 C0.54163973,0.610199557 1.69262416,3.11879773 1.69262416,3.11879773" id="XMLID_425_"></path>
                        <path d="M4.26541287,2.71199803 C4.53623274,2.98319783 5.0101675,3.11879773 5.48410226,3.11879773 C6.02574199,3.11879773 6.43197179,2.98319783 6.70279165,2.71199803 C6.97361152,2.44079823 7.10902145,2.03399852 7.10902145,1.76279872 C7.10902145,1.35599901 6.97361152,1.01699926 6.70279165,0.813599409 C6.43197179,0.542399606 6.02574199,0.406799704 5.48410226,0.406799704 C4.94246253,0.406799704 4.6039377,0.542399606 4.26541287,0.813599409 C3.99459301,1.08479921 3.85918307,1.42379897 3.85918307,1.76279872 C3.85918307,2.16959842 3.99459301,2.50859818 4.26541287,2.71199803 M4.94246253,1.49159892 C5.2132824,1.01699926 5.48410226,0.813599409 5.89033206,0.94919931 C6.22885689,1.08479921 6.29656186,1.42379897 6.02574199,1.96619857 C5.75492213,2.44079823 5.48410226,2.64419808 5.07787247,2.50859818 C4.73934763,2.37299828 4.67164267,2.03399852 4.94246253,1.49159892" id="XMLID_422_" fill-rule="nonzero"></path>
                        <path d="M11.6452542,3.11879773 C11.6452542,3.11879773 11.1036145,4.20359695 11.0359095,4.2713969 C10.9682045,4.4069968 11.0359095,4.47479675 11.1713194,4.47479675 L11.983779,4.47479675 L13.947223,0.677999507 C13.947223,0.610199557 13.947223,0.610199557 13.8795181,0.610199557 L13.1347634,0.610199557 C12.9993535,0.610199557 12.9316485,0.677999507 12.8639436,0.745799458 C12.8639436,0.813599409 12.2545989,1.89839862 12.2545989,1.89839862 C12.1868939,1.96619857 12.119189,1.96619857 12.051484,1.89839862 C12.051484,1.89839862 11.5098443,0.813599409 11.5098443,0.745799458 C11.4421393,0.610199557 11.3744343,0.542399606 11.2390244,0.542399606 L10.4942698,0.542399606 C10.4265648,0.542399606 10.4265648,0.542399606 10.4265648,0.610199557 C10.4942698,0.610199557 11.6452542,3.11879773 11.6452542,3.11879773" id="XMLID_421_"></path>
                        <path d="M14.2180429,2.71199803 C14.4888628,2.98319783 14.9627975,3.11879773 15.4367323,3.11879773 C15.978372,3.11879773 16.3846018,2.98319783 16.6554217,2.71199803 C16.9262416,2.44079823 17.0616515,2.03399852 17.0616515,1.76279872 C17.0616515,1.35599901 16.9262416,1.01699926 16.6554217,0.813599409 C16.3846018,0.542399606 15.978372,0.406799704 15.4367323,0.406799704 C14.8950926,0.406799704 14.5565677,0.542399606 14.2180429,0.813599409 C13.947223,1.08479921 13.8118131,1.42379897 13.8118131,1.76279872 C13.8118131,2.16959842 14.014928,2.50859818 14.2180429,2.71199803 M14.9627975,1.49159892 C15.2336174,1.01699926 15.5044373,0.813599409 15.9106671,0.94919931 C16.2491919,1.08479921 16.3168969,1.42379897 16.046077,1.96619857 C15.7752571,2.44079823 15.5044373,2.64419808 15.0982075,2.50859818 C14.6919777,2.37299828 14.6919777,2.03399852 14.9627975,1.49159892" id="XMLID_418_" fill-rule="nonzero"></path>
                        <path d="M7.37984132,3.05099778 L8.26000588,3.05099778 C8.32771084,3.05099778 8.39541581,2.98319783 8.39541581,2.91539788 L8.39541581,1.08479921 C9.00476051,0.94919931 9.4109903,1.08479921 9.4109903,1.35599901 L9.4109903,2.91539788 C9.4109903,2.98319783 9.47869527,3.05099778 9.54640024,3.05099778 L10.4265648,3.05099778 L10.4265648,1.35599901 C10.4265648,0.542399606 9.34328534,0.135599901 7.51525125,0.610199557 C7.37984132,0.677999507 7.31213635,0.745799458 7.31213635,0.881399359 L7.37984132,3.05099778 Z" id="XMLID_417_"></path>
                        <path d="M20.2437849,2.91539788 C20.3791948,2.84759793 20.4468998,2.77979798 20.4468998,2.64419808 L20.4468998,0.542399606 L19.5667352,0.542399606 C19.4990303,0.542399606 19.4313253,0.610199557 19.4313253,0.677999507 L19.4313253,2.50859818 C18.8219806,2.64419808 18.4157508,2.50859818 18.4157508,2.23739837 L18.4157508,0.677999507 C18.4157508,0.610199557 18.3480458,0.542399606 18.2803409,0.542399606 L17.4001763,0.542399606 L17.4001763,2.23739837 C17.3324713,3.05099778 18.4157508,3.45779749 20.2437849,2.91539788" id="XMLID_416_"></path>
                    </g>
                    <g id="XMLID_372_" transform="translate(0.000000, 4.067997)">
                        <g id="XMLID_405_" transform="translate(41.300029, 3.389998)">
                            <g id="XMLID_411_" transform="translate(0.000000, 8.813994)">
                                <path d="M13.6764032,0 L10.020335,0 L10.020335,0.406799704 C10.020335,3.66119734 8.93705554,5.22059621 6.70279165,5.15279626 C6.02574199,5.15279626 5.07787247,4.9493964 3.92688804,4.61039665 L3.92688804,0 L0.135409932,0 L0.135409932,13.69559 L0.609344696,13.69559 C0.677049662,13.69559 0.744754628,13.69559 0.812459594,13.69559 C1.28639436,13.69559 1.96344402,13.6277901 2.50508375,13.3565903 C3.65606818,12.7463907 3.85918307,12.2039911 3.92688804,9.89879281 L3.92688804,7.79699433 C5.0101675,8.13599409 5.89033206,8.27159399 6.70279165,8.27159399 C11.4421393,8.33939394 13.8118131,5.76299581 13.7441081,0.406799704 L13.6764032,0 Z" id="XMLID_414_" fill="#D61519"></path>
                                <path d="M6.63508669,5.15279626 C5.95803703,5.15279626 5.0101675,4.9493964 3.85918307,4.61039665 L3.85918307,1.76279872 C2.70819865,2.44079823 1.35409932,2.71199803 0.0677049662,3.05099778 L0.0677049662,7.79699433 C1.35409932,8.74619364 2.64049368,9.69539295 3.85918307,10.7123922 L3.85918307,7.79699433 C4.94246253,8.13599409 5.82262709,8.27159399 6.63508669,8.27159399 C8.59853071,8.27159399 10.1557449,7.86479428 11.3067294,6.98339492 C10.4942698,6.10199557 9.68181017,5.22059621 8.86935057,4.4069968 C8.32771084,4.9493964 7.58295622,5.22059621 6.63508669,5.15279626 Z" id="XMLID_413_" fill="#E60014"></path>
                                <path d="M13.6764032,0 L10.020335,0 L10.020335,0.406799704 C10.020335,1.01699926 9.95263003,1.49159892 9.88492507,2.03399852 C11.1036145,1.96619857 12.3900088,1.96619857 13.6086982,1.96619857 C13.6764032,1.49159892 13.6764032,0.94919931 13.6764032,0.406799704 L13.6764032,0 Z" id="XMLID_412_" fill="#E60014"></path>
                            </g>
                            <g id="XMLID_409_" fill="#0096FF">
                                <path d="M7.58295622,0.0677999507 C6.22885689,0.0677999507 4.94246253,0.406799704 3.79147811,1.08479921 L3.79147811,0.94919931 L3.79147811,0.0677999507 L2.97901851,0.0677999507 C2.50508375,0.0677999507 1.96344402,0.135599901 1.48950926,0.406799704 C0.406229797,0.94919931 0.135409932,1.49159892 0.0677049662,3.72899729 L0.0677049662,4.61039665 L0.0677049662,5.15279626 L0.0677049662,8.47499384 L3.85918307,8.47499384 L3.85918307,4.5425967 C5.0101675,3.86459719 6.09344696,3.52559744 7.17672642,3.52559744 C8.59853071,3.45779749 9.47869527,4.33919685 9.8172201,6.10199557 L12.6608287,2.91539788 C11.7129592,1.01699926 10.020335,0.0677999507 7.58295622,0.0677999507 Z" id="XMLID_410_"></path>
                            </g>
                            <g id="XMLID_407_" transform="translate(9.478695, 2.711998)" fill="#69CD00">
                                <path d="M3.18213341,0.135599901 L0.406229797,3.38999754 C0.473934763,3.86459719 0.54163973,4.47479675 0.54163973,5.0849963 L0.54163973,5.76299581 L4.1977079,5.76299581 L4.1977079,5.0849963 C4.1977079,3.05099778 3.85918307,1.35599901 3.18213341,0.135599901 Z" id="XMLID_408_"></path>
                            </g>
                            <path d="M2.97901851,0.0677999507 C2.50508375,0.0677999507 1.96344402,0.135599901 1.48950926,0.406799704 C0.406229797,0.94919931 0.135409932,1.49159892 0.0677049662,3.72899729 L0.0677049662,5.15279626 L3.72377314,0.94919931 L3.72377314,0.0677999507 C3.72377314,0.0677999507 2.97901851,0.0677999507 2.97901851,0.0677999507 Z" id="XMLID_406_" fill="#FFB400"></path>
                        </g>
                        <path d="M34.055598,3.66119734 C33.9201881,3.59339739 33.7847781,3.59339739 33.6493682,3.59339739 L33.1754334,3.52559744 C33.0400235,3.52559744 32.1598589,3.45779749 32.1598589,3.45779749 C32.024449,3.45779749 31.3473994,3.45779749 31.1442845,3.45779749 C30.1964149,3.45779749 29.3162504,3.52559744 28.5037908,3.59339739 C27.962151,3.66119734 27.2851014,3.79679724 26.9465766,4.00019709 C26.134117,4.33919685 25.5924772,4.9493964 25.5924772,7.32239468 C25.7955921,7.32239468 26.2695269,7.25459473 26.3372319,7.18679478 C26.6757567,7.11899483 27.0819865,7.11899483 27.4205113,7.05119488 C27.7590361,6.98339492 28.097561,6.98339492 28.4360858,6.91559497 C29.3162504,6.84779502 30.1964149,6.77999507 30.9411696,6.77999507 C31.0765795,6.77999507 31.6859242,6.77999507 31.6859242,6.77999507 C31.8890391,6.77999507 32.092154,6.84779502 32.2952689,6.84779502 C33.5139583,7.11899483 34.055598,8.00039419 33.9201881,9.42419315 L33.9201881,9.89879281 L32.2952689,9.89879281 C28.9777255,9.7631929 26.7434617,10.4411924 25.5924772,11.8649914 L37.7116662,11.8649914 L37.7116662,9.42419315 C37.9147811,6.23759547 36.6960917,4.33919685 34.055598,3.66119734 Z" id="XMLID_404_" fill="#FFB400"></path>
                        <g id="XMLID_402_" transform="translate(0.677050, 12.203991)" fill="#D61519">
                            <path d="M0,0 L0,8.27159399 C0,8.27159399 1.42180429,8.40719389 2.30196885,8.00039419 C3.45295328,7.39019463 3.72377314,6.84779502 3.72377314,4.33919685 L3.72377314,0 L0,0 Z" id="XMLID_403_"></path>
                        </g>
                        <path d="M2.09885395,0.677999507 C1.08327946,1.22039911 0.609344696,2.16959842 0.609344696,4.74599655 C0.609344696,4.74599655 1.15098443,4.20359695 1.96344402,3.93239714 C2.57278872,3.72899729 2.97901851,3.38999754 3.31754334,3.18659768 C4.1977079,2.50859818 4.33311784,1.69499877 4.33311784,0.338999754 C4.33311784,0.338999754 2.91131355,0.271199803 2.09885395,0.677999507 Z" id="XMLID_401_" fill="#69CD00"></path>
                        <path d="M31.1442845,3.38999754 C30.1964149,3.38999754 29.3162504,3.45779749 28.5037908,3.52559744 C27.962151,3.59339739 27.2851014,3.72899729 26.9465766,3.93239714 C26.134117,4.2713969 25.5924772,4.88159645 25.5924772,7.25459473 C27.4882163,6.91559497 29.2485454,6.77999507 30.8734646,6.77999507 C31.4151043,6.71219512 31.8213341,6.77999507 32.2275639,6.84779502 L34.8003526,3.93239714 C33.8524831,3.52559744 32.6337937,3.38999754 31.1442845,3.38999754 Z" id="XMLID_400_" fill="#69CD00"></path>
                        <path d="M11.1713194,3.45779749 C11.1036145,3.45779749 11.0359095,3.45779749 11.0359095,3.45779749 L10.9682045,3.45779749 C10.4942698,3.45779749 9.8172201,3.52559744 9.27558037,3.79679724 C8.12459594,4.4069968 7.85377608,4.9493964 7.85377608,7.45799458 L7.85377608,7.79699433 L7.85377608,10.4411924 L11.5098443,6.23759547 L11.5098443,3.38999754 L11.1713194,3.38999754 L11.1713194,3.45779749 Z" id="XMLID_399_" fill="#FFB400"></path>
                        <rect id="XMLID_398_" fill="#FFFFFF" x="51.3203644" y="11.8649914" width="3.65606818" height="1"></rect>
                        <rect id="XMLID_397_" fill="#FFFFFF" x="41.3677344" y="11.8649914" width="3.79147811" height="1"></rect>
                        <g id="XMLID_395_" transform="translate(25.050837, 9.491993)" fill="#69CD00">
                            <path d="M2.77590361,2.37299828 L4.4008228,0.474599655 C2.57278872,0.745799458 1.28639436,1.35599901 0.54163973,2.37299828 L2.77590361,2.37299828 Z" id="XMLID_396_"></path>
                        </g>
                        <rect id="XMLID_394_" fill="#FFFFFF" x="17.6709962" y="11.8649914" width="3.79147811" height="1"></rect>
                        <g id="XMLID_392_" transform="translate(17.603291, 5.423996)" fill="#69CD00">
                            <polygon id="XMLID_393_" points="3.85918307 6.44099532 3.85918307 0.474599655 0.0677049662 3.11879773 0.0677049662 6.44099532"></polygon>
                        </g>
                        <rect id="XMLID_391_" fill="#FFFFFF" x="7.92148105" y="11.8649914" width="3.65606818" height="1"></rect>
                        <path d="M0.677049662,12.2039911 L0.677049662,15.187189 C1.89573905,15.3227889 3.11442845,15.3227889 4.33311784,15.2549889 L4.33311784,12.2039911 L0.677049662,12.2039911 Z" id="XMLID_390_" fill="#E60014"></path>
                        <rect id="XMLID_389_" fill="#FFFFFF" x="0.677049662" y="11.8649914" width="3.65606818" height="1"></rect>
                        <g id="XMLID_383_" transform="translate(24.373788, 12.203991)">
                            <path d="M0.203114899,2.98319783 L0.203114899,3.52559744 C0.270819865,6.71219512 1.96344402,8.27159399 5.48410226,8.27159399 C6.83820159,8.27159399 8.26000588,7.93259424 9.6141052,7.32239468 L9.6141052,8.27159399 L13.2701734,8.27159399 L13.2701734,0 L0.947869527,0 C0.473934763,0.813599409 0.203114899,1.83059867 0.203114899,2.98319783 Z M7.92148105,0.813599409 L9.54640024,0.813599409 L9.54640024,4.4069968 C8.59853071,5.01719635 7.44754628,5.35619611 5.95803703,5.35619611 C4.67164267,5.35619611 3.99459301,4.88159645 3.92688804,3.86459719 L3.92688804,3.05099778 C3.92688804,1.42379897 5.14557743,0.745799458 7.92148105,0.813599409 Z" id="XMLID_386_" fill="#D61519" fill-rule="nonzero"></path>
                            <path d="M4.06229797,4.33919685 C2.91131355,3.18659768 1.69262416,2.10179847 0.473934763,1.15259916 C0.338524831,1.69499877 0.203114899,2.30519832 0.203114899,2.98319783 L0.203114899,3.52559744 C0.270819865,6.71219512 1.96344402,8.27159399 5.48410226,8.27159399 C6.02574199,8.27159399 6.56738172,8.20379404 7.10902145,8.13599409 C6.43197179,7.05119488 5.6195122,6.03419561 4.73934763,5.0849963 C4.4008228,4.88159645 4.1977079,4.6781966 4.06229797,4.33919685 Z" id="XMLID_385_" fill="#E60014"></path>
                            <path d="M12.1868939,0 C11.3067294,2.50859818 10.3588598,5.01719635 9.34328534,7.45799458 C9.4109903,7.39019463 9.54640024,7.39019463 9.6141052,7.32239468 L9.6141052,8.27159399 L10.4265648,8.27159399 C10.9004996,8.27159399 11.5098443,8.20379404 11.9160741,7.93259424 C12.9993535,7.39019463 13.2701734,6.84779502 13.2701734,4.88159645 L13.2701734,0 L12.1868939,0 Z" id="XMLID_384_" fill="#E60014"></path>
                        </g>
                        <path d="M4.33311784,11.8649914 L4.33311784,4.13579699 L4.33311784,3.32219759 C4.33311784,3.32219759 3.92688804,3.86459719 3.24983838,4.2713969 C2.70819865,4.5425967 2.30196885,4.74599655 1.76032912,5.01719635 C0.880164561,5.49179601 0.677049662,5.89859571 0.677049662,6.57659522 L0.677049662,6.77999507 L0.677049662,7.86479428 L0.677049662,8.13599409 L0.677049662,11.8649914 L4.33311784,11.8649914 Z" id="XMLID_382_" fill="#FFB400"></path>
                        <g id="XMLID_380_" transform="translate(7.447546, 5.423996)" fill="#69CD00">
                            <polygon id="XMLID_381_" points="4.13000294 6.44099532 4.13000294 0.0677999507 0.473934763 3.25439763 0.473934763 6.44099532"></polygon>
                        </g>
                        <path d="M20.5146048,3.45779749 C20.04067,3.45779749 19.4990303,3.52559744 19.0250955,3.79679724 C17.8741111,4.4069968 17.6032912,4.9493964 17.6032912,7.45799458 L17.6032912,7.79699433 L17.6032912,11.3903917 L21.3947693,7.11899483 L21.3947693,3.45779749 L20.5146048,3.45779749 Z" id="XMLID_379_" fill="#0096FF"></path>
                        <path d="M11.1713194,3.45779749 C11.1036145,3.45779749 11.0359095,3.45779749 11.0359095,3.45779749 L10.9682045,3.45779749 C10.4942698,3.45779749 9.8172201,3.52559744 9.27558037,3.79679724 C8.12459594,4.4069968 7.85377608,4.9493964 7.85377608,7.45799458 L7.85377608,7.79699433 L7.85377608,10.4411924 L11.5098443,6.23759547 L11.5098443,3.38999754 L11.1713194,3.38999754 L11.1713194,3.45779749 Z" id="XMLID_378_" fill="#FFB400"></path>
                        <g id="XMLID_374_" transform="translate(7.447546, 12.203991)">
                            <path d="M10.2234499,0 L10.2234499,3.79679724 C8.86935057,4.61039665 7.51525125,5.0849963 6.29656186,5.0849963 C4.8070526,5.0849963 4.13000294,4.06799704 4.13000294,1.96619857 L4.13000294,0 L0.473934763,0 L0.473934763,1.89839862 C0.406229797,6.16979552 2.16655892,8.33939394 5.75492213,8.20379404 C7.37984132,8.20379404 8.86935057,7.86479428 10.2234499,7.18679478 L10.2234499,8.20379404 L10.6973847,8.20379404 C11.1713194,8.20379404 11.983779,8.20379404 12.5931237,7.86479428 C13.7441081,7.25459473 14.014928,6.71219512 14.014928,4.20359695 L14.014928,3.86459719 L14.014928,0 L10.2234499,0 Z" id="XMLID_377_" fill="#D61519"></path>
                            <path d="M0.473934763,0 L0.473934763,1.89839862 C0.473934763,2.16959842 0.473934763,2.44079823 0.473934763,2.64419808 C1.69262416,2.44079823 2.97901851,2.16959842 4.13000294,1.76279872 L4.13000294,0 L0.473934763,0 Z" id="XMLID_376_" fill="#E60014"></path>
                            <path d="M10.2234499,0 L10.2234499,3.79679724 C8.86935057,4.61039665 7.51525125,5.0849963 6.29656186,5.0849963 C5.6195122,5.0849963 5.14557743,4.88159645 4.8070526,4.47479675 C4.06229797,5.49179601 3.24983838,6.50879527 2.43737878,7.45799458 C3.24983838,8.06819414 4.4008228,8.33939394 5.75492213,8.33939394 C6.63508669,8.33939394 7.44754628,8.20379404 8.26000588,8.00039419 C9.74951513,5.89859571 11.7129592,4.06799704 13.6764032,2.50859818 C13.8118131,2.44079823 13.8795181,2.37299828 14.014928,2.37299828 L14.014928,0 L10.2234499,0 Z" id="XMLID_375_" fill="#E60014"></path>
                        </g>
                        <path d="M37.7116662,11.8649914 L25.5924772,11.8649914 C25.5247723,12.0005913 25.3893623,12.1361912 25.3216574,12.2039911 L37.7116662,12.2039911 C37.7116662,12.2039911 37.7116662,11.8649914 37.7116662,11.8649914 Z" id="XMLID_373_" fill="#FFFFFF"></path>
                    </g>
                </g>
            </g>
        </g>
    </g>
</svg>