<?xml version="1.0" standalone="no"?>
<!DOCTYPE svg PUBLIC "-//W3C//DTD SVG 1.1//EN" "http://www.w3.org/Graphics/SVG/1.1/DTD/svg11.dtd" >
<svg xmlns="http://www.w3.org/2000/svg">
<metadata>
Created by FontForge 20120731 at Mon Jan  9 15:16:41 2017
 By admin
</metadata>
<defs>
<font id="xx-iconfont" horiz-adv-x="1024" >
  <font-face 
    font-family="xx-iconfont"
    font-weight="500"
    font-stretch="normal"
    units-per-em="1024"
    panose-1="2 0 6 3 0 0 0 0 0 0"
    ascent="896"
    descent="-128"
    x-height="792"
    bbox="0 -128 1024 896"
    underline-thickness="0"
    underline-position="0"
    unicode-range="U+0078-E67E"
  />
<missing-glyph 
 />
    <glyph glyph-name=".notdef" 
 />
    <glyph glyph-name=".notdef" 
 />
    <glyph glyph-name=".null" horiz-adv-x="0" 
 />
    <glyph glyph-name="nonmarkingreturn" horiz-adv-x="341" 
 />
    <glyph glyph-name="x" unicode="x" horiz-adv-x="1001" 
d="M281 543q-27 -1 -53 -1h-83q-18 0 -36.5 -6t-32.5 -18.5t-23 -32t-9 -45.5v-76h912v41q0 16 -0.5 30t-0.5 18q0 13 -5 29t-17 29.5t-31.5 22.5t-49.5 9h-133v-97h-438v97zM955 310v-52q0 -23 0.5 -52t0.5 -58t-10.5 -47.5t-26 -30t-33 -16t-31.5 -4.5q-14 -1 -29.5 -0.5
t-29.5 0.5h-32l-45 128h-439l-44 -128h-29h-34q-20 0 -45 1q-25 0 -41 9.5t-25.5 23t-13.5 29.5t-4 30v167h911zM163 247q-12 0 -21 -8.5t-9 -21.5t9 -21.5t21 -8.5q13 0 22 8.5t9 21.5t-9 21.5t-22 8.5zM316 123q-8 -26 -14 -48q-5 -19 -10.5 -37t-7.5 -25t-3 -15t1 -14.5
t9.5 -10.5t21.5 -4h37h67h81h80h64h36q23 0 34 12t2 38q-5 13 -9.5 30.5t-9.5 34.5q-5 19 -11 39h-368zM336 498v228q0 11 2.5 23t10 21.5t20.5 15.5t34 6h188q31 0 51.5 -14.5t20.5 -52.5v-227h-327z" />
    <glyph glyph-name="gengduo" unicode="&#xe60a;" 
d="M122 504q-49 0 -84 -34.5t-35 -83.5t35 -84t84 -35t83.5 35t34.5 84t-34.5 83.5t-83.5 34.5zM500 504q-49 0 -84 -34.5t-35 -83.5t35 -84t84 -35t84 35t35 84t-35 83.5t-84 34.5zM902 504q-49 0 -84 -34.5t-35 -83.5t35 -84t84 -35t83.5 35t34.5 84t-34.5 83.5
t-83.5 34.5z" />
    <glyph glyph-name="iconfontcha" unicode="&#xe608;" 
d="M755 683l-243 -242l-243 242q-10 10 -23.5 10t-23.5 -9.5t-10 -23.5t10 -24l243 -243l-243 -243q-10 -9 -10 -23t10 -24t23.5 -10t23.5 10l243 243l243 -243q10 -10 23.5 -10t23.5 10t10 24t-10 23l-243 243l243 243q10 10 10 24t-10 23.5t-23.5 9.5t-23.5 -10z" />
    <glyph glyph-name="xiugai" unicode="&#xe60d;" 
d="M252 265l158 -165l389 405l-158 165l-389 -405v0zM125 -2l249 61l-160 167l-89 -228v0zM842 713q-19 21 -33.5 32.5t-31.5 19t-33.5 2.5t-32.5 -22l-31 -34l161 -168l33 32q16 17 20.5 34.5t-3 35.5t-18.5 33t-31 35v0zM842 713z" />
    <glyph glyph-name="skin" unicode="&#xe604;" 
d="M708 4h-393q-44 0 -75.5 31t-31.5 74l33 293q0 14 -3 23v0q-22 -19 -54 -19q-46 0 -84 34l-4 3q-32 30 -33 73.5t30 74.5l115 113q26 26 59 45t57 19t54.5 -23.5t51.5 -54.5q3 -4 9 -10.5t27 -16t45.5 -9.5t45 10t27 16t8.5 10q22 31 53 54.5t57 23.5q25 0 59 -20t60 -45
l109 -112q31 -31 30.5 -75t-32.5 -74q-37 -36 -85 -36v0q-33 0 -55 19q-1 1 -3 2q-4 -9 -4 -25l33 -293q0 -43 -31 -74t-75 -31zM241 477q20 0 34.5 -18.5t14.5 -56.5l-33 -293q0 -23 17 -40t41 -17h393q23 0 40 17t17 40l-33 293q0 38 15.5 56.5t35.5 18.5q19 0 37 -15
q9 -7 23 -7v0q28 0 51 22q17 16 17 39.5t-16 40.5l-110 111q-21 22 -46 36.5t-37 14.5q-9 0 -30.5 -15.5t-38.5 -40.5q-2 -3 -5.5 -7.5t-14.5 -14t-24 -17t-34 -13.5t-44 -6t-44 6t-34 13.5t-24 17t-14.5 14t-5.5 7.5q-16 24 -36.5 40t-28.5 16q-11 0 -35.5 -14.5
t-45.5 -35.5l-115 -113q-17 -16 -16.5 -38.5t18.5 -38.5l3 -3q24 -21 51 -21q13 0 21 6q17 16 36 16z" />
    <glyph glyph-name="renwu" unicode="&#xe602;" 
d="M723 -15h-422q-41 0 -69.5 29t-28.5 71v549q0 41 28.5 70t69.5 29v50h49v-50h138v50h48v-50h138v50h49v-50q41 0 69.5 -29t28.5 -70v-549q0 -42 -28.5 -71t-69.5 -29zM772 634q0 20 -14 34.5t-35 14.5h-422q-21 0 -35 -14.5t-14 -34.5v-549q0 -21 14 -35.5t35 -14.5h422
q21 0 35 14.5t14 35.5v549zM699 184h-374q-10 0 -17 7.5t-7 18t7 17.5t17 7h374q10 0 17 -7t7 -17.5t-7 -18t-17 -7.5zM699 334h-374q-10 0 -17 7.5t-7 17.5t7 17.5t17 7.5h374q10 0 17 -7.5t7 -17.5t-7 -17.5t-17 -7.5zM699 484h-374q-10 0 -17 7t-7 17.5t7 18t17 7.5h374
q10 0 17 -7.5t7 -18t-7 -17.5t-17 -7z" />
    <glyph glyph-name="fenxiang" unicode="&#xe601;" 
d="M806 417q-16 0 -27 -11.5t-11 -26.5v-311h-634v311q0 15 -11 26.5t-26.5 11.5t-27 -11.5t-11.5 -26.5v-315q0 -29 21 -50t51 -21h642q30 0 51 21t21 50v315q0 15 -11 26.5t-27 11.5zM999 600v3l-1 3t-1 4v0.5t-1 0.5l-0.5 1l-0.5 1l-2 4q0 1 -1 2l-1 1l-2 2l-115 122
q-9 10 -23 11.5t-25 -6.5q-3 -2 -5 -4q-12 -11 -12.5 -26.5t10.5 -27.5l32 -34v0h-21.5t-42.5 -1t-62 -8t-69 -18t-76 -33t-71 -52q-136 -124 -134 -361q0 -15 10.5 -25.5t25.5 -10.5t25.5 10.5t10.5 25.5q-1 205 110 308q34 31 76.5 52t83 29t67 10.5t48.5 1.5v-1l-39 -17
q-4 -1 -7 -3q-11 -7 -15 -20t1 -26q6 -15 20.5 -21t29.5 0l154 64l1 0.5l1 0.5q3 2 4 2l3 3q1 0 1.5 0.5l1.5 1.5v0l3 3q0 1 0.5 1.5t1 1.5t1.5 2t1 1.5t0.5 1.5t1 1.5t1.5 4.5v1v1q1 1 1 5v1.5v0.5v5z" />
    <glyph glyph-name="gonggao" unicode="&#xe603;" horiz-adv-x="1025" 
d="M602 -128q-11 0 -20 8l-292 263h-170q-19 0 -39 6.5t-38.5 20t-30.5 38t-12 56.5v180q0 20 6.5 40t20 38.5t38 30.5t55.5 12h170l292 263q15 13 32.5 5t17.5 -27v-904q0 -20 -17 -27q-6 -3 -13 -3zM120 504q-19 0 -32.5 -7.5t-19 -19t-7 -19t-1.5 -14.5v-180
q0 -20 7.5 -33.5t19.5 -18.5t19.5 -7t13.5 -2h181q12 0 20 -7l251 -226v768l-251 -226q-8 -8 -20 -8h-181zM753 535q-12 0 -21 8.5t-9 21t9 21.5l120 120q9 9 21.5 9t21 -8.5t8.5 -21t-8 -21.5l-121 -121q-9 -8 -21 -8zM934 324h-181q-12 0 -21 8.5t-9 21t9 21.5t21 9h181
q12 0 21 -9t9 -21.5t-9 -21t-21 -8.5zM873.5 -8q-12.5 0 -21.5 9l-120 121q-9 9 -9 21.5t8.5 21t21 8.5t21.5 -9l121 -120q8 -9 8 -21.5t-8.5 -21.5t-21 -9z" />
    <glyph glyph-name="youjian" unicode="&#xe605;" 
d="M870 679h-717q-32 0 -54.5 -22.5t-22.5 -53.5v-461q0 -32 22.5 -54.5t54.5 -22.5h717q31 0 53.5 22.5t22.5 54.5v461q0 31 -22.5 53.5t-53.5 22.5zM128 142v451l225 -226l-225 -226v1zM165 628h693l-347 -347zM390 331l121 -122l123 122l215 -214h-674zM671 367h-2
l226 226v-451z" />
    <glyph glyph-name="youjianyidu" unicode="&#xe606;" 
d="M512 808l-424 -265v-106v-371q0 -44 31 -75t75 -31h636q44 0 75 31t31 75v371v106zM141 66v387l240 -165l-237 -237q-3 8 -3 15zM830 13h-636q-5 0 -11 2l243 243l86 -59l86 59l243 -243q-6 -2 -11 -2zM883 66q0 -7 -3 -15l-237 237l240 165v-387zM512 261l-371 255
l370 230l372 -230z" />
    <glyph glyph-name="yujingdaibanicon" unicode="&#xe600;" 
d="M819 282v273q0 92 -45.5 171t-124 124.5t-171.5 45.5t-171.5 -45.5t-124 -124.5t-45.5 -171v-273l-137 -274h311q12 -58 58.5 -97t108 -39t108.5 39t59 97h311zM478 -60q-33 0 -59 19t-37 49h192q-11 -30 -37 -49t-59 -19zM102 77l103 205v273q0 113 80 193t193 80
t193 -80t80 -193v-273l102 -205h-751z" />
    <glyph glyph-name="iconfontzuidahua" unicode="&#xe607;" 
d="M355 699h-209q-24 0 -38.5 14.5t-14.5 37.5v0q0 24 14.5 38t38.5 14h209q24 0 38.5 -14t14.5 -38v0q0 -23 -14.5 -37.5t-38.5 -14.5v0zM93 541v210q0 23 14.5 37.5t37.5 14.5v0q24 0 38.5 -14.5t14.5 -37.5v-210q0 -23 -14.5 -37.5t-38.5 -14.5v0q-23 0 -37.5 14.5
t-14.5 37.5v0zM93 17v210q0 24 14.5 38t37.5 14v0q24 0 38.5 -14t14.5 -38v-210q0 -23 -14.5 -37.5t-38.5 -14.5v0q-23 0 -37.5 14.5t-14.5 37.5v0zM355 -35h-209q-24 0 -38.5 14.5t-14.5 37.5v0q0 24 14.5 38.5t38.5 14.5h209q24 0 38.5 -14.5t14.5 -38.5v0
q0 -23 -14.5 -37.5t-38.5 -14.5v0zM669 699h210q24 0 38 14.5t14 37.5v0q0 24 -14 38t-38 14h-210q-23 0 -37.5 -14t-14.5 -38v0q0 -23 14.5 -37.5t37.5 -14.5v0zM932 541v210q0 23 -14.5 37.5t-38.5 14.5v0q-24 0 -38.5 -14.5t-14.5 -37.5v-210q0 -23 14.5 -37.5
t38.5 -14.5v0q24 0 38.5 14.5t14.5 37.5v0zM932 17v210q0 24 -14.5 38t-38.5 14v0q-24 0 -38.5 -14t-14.5 -38v-210q0 -23 14.5 -37.5t38.5 -14.5v0q24 0 38.5 14.5t14.5 37.5v0zM669 -35h210q24 0 38 14.5t14 37.5v0q0 24 -14 38.5t-38 14.5h-210q-23 0 -37.5 -14.5
t-14.5 -38.5v0q0 -23 14.5 -37.5t37.5 -14.5v0z" />
    <glyph glyph-name="iconfontzuixiaohua" unicode="&#xe609;" 
d="M347 699h-209q-24 0 -38 14.5t-14 37.5v0q0 24 14 38t38 14h209q24 0 38.5 -14t14.5 -38v0q0 -23 -14.5 -37.5t-38.5 -14.5v0zM85 542v209q0 24 15 38.5t38 14.5v0q24 0 38.5 -14.5t14.5 -38.5v-209q0 -24 -14.5 -38.5t-38.5 -14.5v0q-23 0 -38 14.5t-15 38.5v0zM85 18
v209q0 24 15 38.5t38 14.5v0q24 0 38.5 -14.5t14.5 -38.5v-209q0 -24 -14.5 -38.5t-38.5 -14.5v0q-23 0 -38 14.5t-15 38.5v0zM347 -35h-209q-24 0 -38 14.5t-14 37.5v0q0 24 14 38.5t38 14.5h209q24 0 38.5 -14.5t14.5 -38.5v0q0 -23 -14.5 -37.5t-38.5 -14.5v0zM662 699
h209q24 0 38.5 14.5t14.5 37.5v0q0 24 -14.5 38t-38.5 14h-209q-24 0 -38.5 -14t-14.5 -38v0q0 -23 14.5 -37.5t38.5 -14.5v0zM925 542v209q0 24 -15 38.5t-38 14.5v0q-24 0 -38.5 -14.5t-14.5 -38.5v-209q0 -24 14.5 -38.5t38.5 -14.5v0q23 0 38 14.5t15 38.5v0zM925 18
v209q0 24 -15 38.5t-38 14.5v0q-24 0 -38.5 -14.5t-14.5 -38.5v-209q0 -24 14.5 -38.5t38.5 -14.5v0q23 0 38 14.5t15 38.5v0zM662 -35h209q24 0 38.5 14.5t14.5 37.5v0q0 24 -14.5 38.5t-38.5 14.5h-209q-24 0 -38.5 -14.5t-14.5 -38.5v0q0 -23 14.5 -37.5t38.5 -14.5v0z
M609 333h-209q-24 0 -38.5 14t-14.5 38v0q0 23 14.5 37.5t38.5 14.5h209q24 0 38.5 -14.5t14.5 -37.5v0q0 -24 -14.5 -38t-38.5 -14v0z" />
    <glyph glyph-name="iconshouqi" unicode="&#xe60b;" 
d="M878 376l-387 343l-342 -342l-50 49l389 389l436 -387zM878 -46l-387 343l-342 -342l-50 49l389 388l436 -386z" />
    <glyph glyph-name="iconzhankai" unicode="&#xe60c;" 
d="M146 392l387 -343l342 342l49 -49l-389 -388l-436 386zM146 815l387 -344l342 342l49 -49l-389 -388l-436 387z" />
    <glyph glyph-name="bujuguanli" unicode="&#xe612;" 
d="M982 583q-39 92 -109 162q-71 70 -162 109q-95 40 -199 40t-198 -40q-92 -39 -163 -109q-69 -70 -109 -162q-40 -96 -40 -199t40 -199q40 -92 109 -162q71 -70 163 -109q94 -40 198 -40q105 0 199 40q91 39 162 109q70 70 109 162q40 95 40 199t-40 199zM512.5 -91
q-96.5 0 -184.5 37.5t-151.5 101.5t-101.5 151.5t-38 184.5t38 184.5t101.5 151.5t151.5 101.5t184.5 37.5t184 -37.5t151.5 -101.5t101.5 -151.5t37.5 -184.5t-37.5 -184.5t-101.5 -151.5t-151.5 -101.5t-184 -37.5zM284 678h456q28 0 47.5 -21t19.5 -51v-72h-591v72
q0 30 20 51t48 21v0zM217 158v351h205v-419h-129q-31 0 -53.5 20t-22.5 48v0zM740 90h-293v413h360v-346q0 -28 -19.5 -47.5t-47.5 -19.5v0z" />
    <glyph glyph-name="xitongjicheng" unicode="&#xe614;" horiz-adv-x="1025" 
d="M984 583q-39 93 -109 163q-72 71 -164 110q-94 40 -199 40q-104 0 -199 -40q-92 -39 -163 -110q-70 -70 -109 -163q-41 -96 -41 -199t40 -199q40 -93 110 -163q71 -71 163 -110q95 -40 199 -40q105 0 199 40q92 39 164 110q70 70 109 163q40 95 40 199t-40 199zM512 -93
q-97 0 -185 38t-152 102t-102 152t-38 185t38 185t102 152t152 102t185 38t185.5 -38t152 -102t101.5 -152t38 -185t-38 -185t-101.5 -152t-152 -102t-185.5 -38zM484 349q17 -8 27.5 -8t28.5 8l248 120q14 7 14.5 28.5t-14.5 30.5l-248 140q-15 9 -27 8.5t-29 -8.5
l-248 -140q-15 -10 -15 -30.5t15 -28.5l248 -120v0zM484 225q17 -9 27.5 -9t28.5 9l248 119q9 4 13 19.5t4 30.5q-5 -3 -16 -8.5t-17 -9l-6 -3.5l-254 -125l-254 125l-39 21q0 -41 17 -50l248 -119v0zM512 123l-254 125l-39 21q0 -41 17 -50l248 -119q17 -9 27.5 -9t28.5 9
l248 119q9 4 13 20t4 30q-5 -3 -16 -8.5t-17 -9l-6 -3.5l-254 -125v0z" />
    <glyph glyph-name="yonghuyingshe" unicode="&#xe615;" horiz-adv-x="1025" 
d="M984 583q-39 93 -109 163q-72 71 -164 110q-94 40 -199 40q-104 0 -199 -40q-92 -39 -163 -110q-70 -70 -109 -163q-41 -96 -41 -199t40 -199q40 -93 110 -163q71 -71 163 -110q95 -40 199 -40q105 0 199 40q92 39 164 110q70 70 109 163q40 95 40 199t-40 199zM512 -93
q-97 0 -185 38t-152 102t-102 152t-38 185t38 185t102 152t152 102t185 38t185.5 -38t152 -102t101.5 -152t38 -185t-38 -185t-101.5 -152t-152 -102t-185.5 -38zM537 176v0v0v0q0 -4 -1.5 -5t-9.5 -1q-12 -24 -60.5 -39t-114.5 -15q-55 0 -83 5v0q-41 8 -67 23.5t-26 31.5
v0v0v5v0q0 27 11 50q12 21 59.5 32t61.5 22q2 2 5 4t4.5 3.5t1.5 3.5v33q-6 0 -11 6q-2 1 -5.5 7.5t-9 13.5t-13.5 12q-3 5 -8 10.5t-8 10.5v17q0 10 11 22v33q0 21 11 43q0 8 5.5 12.5t11.5 4.5h5q5 1 17 3.5t21.5 5.5t16.5 8h11q4 0 11 -7.5t16 -4.5h6h11q2 0 5 -2.5
t6 -2.5q9 -8 12 -21.5t1 -38.5t-2 -28t5.5 -5.5t5.5 -5.5v-38q-13 -6 -26 -28t-18 -27q-4 -11 -5 -20t2 -15l5 -10t10 -7.5t12 -5t15 -4t15 -4.5q77 -9 77 -87v0v0zM750 653q41 0 70 -29t29 -70v-274q0 -41 -28.5 -69.5t-69.5 -28.5h-170v10v1v0v0v0v0q0 45 -24 73t-69 36
h-11q-5 2 -13.5 4t-14.5 3t-6 4v11q4 3 9.5 11t7.5 11q8 16 16 16l17 16v17v38v0v0v0q0 5 -11 17v11v16.5t-0.5 20t-2 16.5t-6.5 17.5t-13 11.5q-10 10 -27 0h-5v0v0q-2 0 -13 11t-20 11v0v0h-11h-6l-5 -5q-2 0 -11.5 -2.5t-16.5 -2.5h-16q0 40 29 69t70 29h323h-1z" />
    <glyph glyph-name="renwuchajian" unicode="&#xe60e;" 
d="M277 182q0 -14 9.5 -24.5t23.5 -10.5h404q14 0 23.5 10.5t9.5 24.5v304h-470v-304v0zM714 619h-404q-14 0 -23.5 -9.5t-9.5 -23.5v-66h470v66q0 14 -9.5 23.5t-23.5 9.5v0zM327 552q-7 0 -12 5t-5 12t5 12t12 5t12 -5t5 -12t-5 -12t-12 -5v0zM394 552q-7 0 -12 5t-5 12
t5 12t12 5t12 -5t5 -12t-5 -12t-12 -5v0zM461 552q-7 0 -11.5 5t-4.5 12t4.5 12t11.5 5t12 -5t5 -12t-5 -12t-12 -5v0zM931 561q-35 82 -97 144q-63 64 -145 98q-84 36 -177 36t-177 -36q-82 -35 -144 -98q-63 -62 -98 -144q-36 -86 -36 -177t36 -177q35 -82 97 -144
q63 -63 145 -98q84 -36 177 -36t177 36q82 34 145 98q62 62 97 144q36 84 36 177t-36 177v0zM780 182q0 -28 -19 -47t-47 -19h-404q-28 0 -48 19t-20 47v404q0 28 20 48t48 20h404q28 0 47 -20t19 -48v-404v0z" />
    <glyph glyph-name="fabudaocaidan" unicode="&#xe63d;" 
d="M817 272v-124q0 -26 -18 -44.5t-43 -18.5h-492q-26 0 -44 18.5t-18 44.5v124h-90v-154q0 -51 38.5 -88.5t90.5 -37.5h548q51 0 87 37t36 89v154h-95zM417 209h186l1 283l120 -1l-213 285l-214 -284h120v-282v-1z" />
    <glyph glyph-name="fuzhi" unicode="&#xe63e;" 
d="M912 366v99v249q0 30 -20 50t-49 20h-473q-30 0 -50 -20t-20 -49v-473q0 -29 20 -49t49 -20h79h158h72h166q7 0 11 1q25 4 41 23.5t16 44.5v86v38zM820 238h-128h-86h-81h-132q-8 0 -14 1q-8 1 -10 3.5t-3 9.5v17q-1 251 0 419q0 11 1 21q1 7 8 8q9 2 16 2h430q8 0 14 -1
t8 -3.5t3 -8.5q1 -10 1 -17v-421q0 -11 -2 -20q-1 -8 -9 -9t-16 -1zM692 139h-1q-14 0 -23 -10t-10 -24v-6q0 -24 -1 -37q0 -6 -2 -8.5t-9 -3.5t-14 -1h-428q-7 0 -16 1q-8 1 -9 10q-2 10 -2 20v419q0 8 1 17q1 7 3.5 9.5t9.5 3.5h1h13q23 1 34 1q14 0 23.5 9.5t9.5 23
t-9.5 23t-23.5 9.5h-25h-33q-29 0 -49 -20t-20 -49v-473q0 -29 20 -49t49 -20h237h99h139q11 0 22 4q20 7 33 24.5t13 39.5v17v33q1 16 -9 27q-10 10 -23 10zM749 515h-80h-29v24v41.5v41.5q0 16 -10.5 26.5t-26 10.5t-25.5 -10.5t-10 -26.5v-36.5v-36.5v-34h-38h-69
q-6 0 -10 -1q-14 -4 -21.5 -15.5t-5.5 -25.5q2 -13 12 -22t24 -9h45h63v-108q0 -17 12 -27q11 -10 24 -10q7 0 15 4q21 9 21 33v80v13.5v14.5h45h62q6 0 12 2q13 4 20 15t5 25q-2 13 -12 22t-23 9z" />
    <glyph glyph-name="pingzhengguanli" unicode="&#xe670;" 
d="M651 251h-380q-5 0 -9 -3.5t-4 -8.5t4 -8.5t9 -3.5h380q5 0 9 3.5t4 8.5t-4 8.5t-9 3.5zM651 380h-380q-5 0 -9 -3.5t-4 -8.5t4 -8.5t9 -3.5h380q5 0 9 3.5t4 8.5t-4 8.5t-9 3.5zM651 509h-380q-5 0 -9 -3.5t-4 -9t4 -9t9 -3.5h380q5 0 9 3.5t4 9t-4 9t-9 3.5zM921 727
q0 48 -34.5 82t-83.5 34h-583h-1v0h-1q-48 0 -82 -34t-34 -82v-676q0 -13 10 -23l95 -91q9 -8 21.5 -8t21.5 8l97 93l100 -96q9 -9 21.5 -9t21.5 9l100 96l100 -96q9 -9 22 -9v0q13 0 22 9l90 87q10 9 10 23v572q38 10 62.5 41t24.5 70zM712 -12l-100 97q-9 9 -21.5 9
t-22.5 -9l-100 -97l-100 97q-9 9 -21.5 9t-21.5 -9l-96 -93l-75 72v663q0 23 16 42.5t37 19.5h6h6h0.5h0.5v0q25 0 40.5 -16t15.5 -46q0 -22 -16.5 -37.5t-39.5 -15.5q-13 0 -22 -9t-9 -22t9 -22t22 -9h563v-555zM802 663h-499q25 47 25 64q0 39 -14 65h489q23 0 45 -21.5
t22 -43.5t-22 -43t-46 -21z" />
    <glyph glyph-name="xiaoxichajian" unicode="&#xe67e;" 
d="M502 336h-119q-6 0 -9.5 -3.5t-3.5 -8.5t3.5 -8.5t9.5 -3.5h119q5 0 9 3.5t4 8.5t-4 8.5t-9 3.5zM643 422h-260q-5 0 -9 -4t-4 -9t4 -9t9 -4h260q6 0 9.5 4t3.5 9t-3.5 9t-9.5 4zM852 793h-680q-29 0 -49.5 -20.5t-20.5 -48.5v-680q0 -28 21 -49t49 -21h680
q28 0 48.5 20.5t20.5 49.5v680q0 28 -20.5 48.5t-48.5 20.5zM609 181h-62l-117 -122q-8 -8 -19 -8q-5 0 -10 2q-16 6 -16 23v107q-79 13 -131 78t-52 153q0 96 63 164t152 68h192q89 0 152 -68t63 -164.5t-63 -164.5t-152 -68zM643 517h-260q-6 0 -9.5 -4t-3.5 -9.5t3.5 -9
t9.5 -3.5h260q6 0 9.5 3.5t3.5 9t-3.5 9.5t-9.5 4z" />
  </font>
</defs>
</svg>
